<!-- Generated by IcoMoon.io -->
<svg version="1.1" xmlns="http://www.w3.org/2000/svg" width="28" height="32" viewBox="0 0 28 32">
<title>agriculture</title>
<path d="M12.25 24.9c-2.959-1.191-4.666-3.542-4.841-6.759-0.261-5.083 3.486-11.834 7.952-14.662-1.321 2.849-2.148 5.642-2.677 8.352 0 0-0.068 0.035-0.034 0.105-0.278 1.548-0.421 3.027-0.564 4.505l-2.019-2.124c-0.135-0.106-0.337-0.178-0.507-0.003-0.102 0.14-0.171 0.351-0.003 0.528l2.49 2.585c-0.107 2.581-0.039 5.071 0.204 7.472zM12.397 25.784c0.123 1.102 0.249 2.201 0.435 3.27-0.001 0.176 0.167 0.353 0.404 0.319l0.068-0.035c0.136-0.070 0.204-0.281 0.137-0.246-0.164-1.058-0.294-2.044-0.39-3.137 3.621-0.367 6.303-2.36 7.673-5.522 1.506-3.584 1.090-8.2-1.118-12.861-0.8-1.689-1.787-3.283-3.019-4.905 0.025-0.089 0.015-0.189-0.032-0.29-0.1-0.212-0.303-0.283-0.506-0.179-5.222 2.507-9.692 10.16-9.383 15.973 0.154 2.607 1.258 6.009 5.733 7.612zM20.016 20.007c-1.233 2.916-3.745 4.734-7.028 5.103-0.062-1.198-0.191-2.361-0.353-3.77l5.737-4.089c0.203-0.105 0.204-0.281 0.104-0.492s-0.27-0.213-0.473-0.108l-5.364 3.809c0.001-0.261 0.001-0.527 0-0.796-0.002-0.817-0.004-1.658 0.051-2.48 0.068-0.035 0.034-0.105 0.034-0.105 0.11-1.725 0.254-3.38 0.601-5.139l3.7-2.515c0.136-0.070 0.204-0.281 0.104-0.492-0.067-0.141-0.27-0.213-0.473-0.108l-3.123 2.131c0.554-2.568 1.413-5.205 2.644-7.769 1.142 1.521 2.014 3.005 2.75 4.559 2.108 4.449 2.525 8.889 1.088 12.262zM12.936 29.284c-0.066-0.061-0.104-0.146-0.104-0.23-0.187-1.069-0.313-2.169-0.435-3.27-4.474-1.603-5.579-5.004-5.733-7.612-0.309-5.813 4.161-13.466 9.383-15.973 0.009-0.005 0.019-0.009 0.028-0.013 0.005-0.002 0.011-0.005 0.016-0.007 0.108-0.042 0.214-0.035 0.302 0.016 0.037 0.021 0.070 0.050 0.1 0.087 0.023 0.028 0.043 0.060 0.060 0.096 0.048 0.1 0.057 0.201 0.032 0.29 1.232 1.622 2.219 3.215 3.019 4.905 2.209 4.661 2.625 9.277 1.118 12.861-1.338 3.091-3.931 5.065-7.43 5.495-0.081 0.010-0.161 0.019-0.243 0.027 0.016 0.181 0.033 0.36 0.051 0.537 0.071 0.705 0.158 1.377 0.259 2.067 0.026 0.176 0.053 0.354 0.081 0.534 0.007-0.004 0.013-0.005 0.017-0.003 0.011 0.004 0.012 0.023 0.005 0.049-0.016 0.060-0.075 0.157-0.158 0.2l-0.068 0.035c-0.1 0.014-0.187-0.009-0.255-0.053-0.017-0.011-0.032-0.023-0.046-0.036zM14.525 4.060c-4.087 3.093-7.361 9.319-7.116 14.082 0.163 3.010 1.669 5.262 4.287 6.515 0.179 0.086 0.364 0.167 0.554 0.244-0.021-0.203-0.040-0.407-0.058-0.612-0.195-2.211-0.244-4.498-0.146-6.86l-2.49-2.585c-0.168-0.177-0.1-0.388 0.003-0.528 0.17-0.175 0.373-0.104 0.507 0.003l2.019 2.124c0.023-0.236 0.046-0.472 0.069-0.709 0.123-1.244 0.261-2.495 0.495-3.796-0.033-0.071 0.034-0.105 0.034-0.105 0.471-2.415 1.18-4.896 2.264-7.425 0.132-0.308 0.27-0.617 0.413-0.927-0.282 0.178-0.56 0.372-0.836 0.58zM14.097 5.091c-1.543 1.348-2.947 3.153-4.027 5.131-1.431 2.619-2.259 5.473-2.136 7.88 0.147 2.694 1.431 4.725 3.705 5.921-0.168-2.062-0.211-4.188-0.129-6.375l-2.335-2.424c-0.193-0.203-0.267-0.456-0.243-0.702 0.021-0.223 0.119-0.404 0.207-0.525l0.023-0.032 0.027-0.028c0.203-0.209 0.457-0.29 0.7-0.264 0.217 0.023 0.39 0.124 0.503 0.214l0.029 0.023 1.255 1.321c0.11-1.070 0.239-2.159 0.438-3.286-0.002-0.037-0.001-0.074 0.004-0.113 0.011-0.091 0.041-0.167 0.075-0.228 0.421-2.122 1.026-4.298 1.904-6.513zM18.003 16.65c0.204-0.105 0.373-0.104 0.473 0.108s0.099 0.388-0.104 0.492l-5.737 4.089c0.138 1.198 0.252 2.218 0.321 3.232 0.012 0.179 0.023 0.359 0.032 0.538 0.177-0.020 0.352-0.044 0.524-0.072 3.026-0.496 5.337-2.272 6.504-5.031 1.438-3.373 1.021-7.813-1.088-12.262-0.659-1.39-1.425-2.724-2.397-4.078-0.115-0.16-0.232-0.32-0.353-0.481-0.088 0.183-0.174 0.367-0.258 0.551-0.978 2.136-1.703 4.315-2.213 6.457-0.061 0.254-0.118 0.508-0.173 0.761l3.123-2.131c0.203-0.105 0.406-0.033 0.473 0.108 0.1 0.212 0.032 0.423-0.104 0.492l-3.7 2.515c-0.347 1.759-0.491 3.414-0.601 5.139 0 0 0.034 0.071-0.034 0.105-0.055 0.821-0.053 1.663-0.051 2.48 0 0.048 0 0.097 0 0.145 0.001 0.219 0.001 0.437 0 0.651l5.364-3.809zM13.165 19.435l4.575-3.249 0.034-0.018c0.14-0.072 0.356-0.157 0.6-0.115 0.283 0.048 0.472 0.242 0.576 0.462 0.067 0.141 0.146 0.359 0.107 0.606-0.043 0.275-0.211 0.472-0.417 0.59l-5.446 3.881c0.12 1.050 0.22 1.979 0.284 2.906 2.84-0.478 4.973-2.139 6.054-4.698 1.354-3.177 0.989-7.446-1.079-11.812-0.607-1.281-1.308-2.513-2.181-3.759-0.816 1.827-1.447 3.685-1.916 5.521l2.042-1.393 0.030-0.015c0.406-0.209 0.956-0.118 1.176 0.347 0.182 0.384 0.127 0.945-0.314 1.199l-3.491 2.373c-0.305 1.616-0.44 3.153-0.544 4.769 0.003 0.024 0.005 0.052 0.005 0.080 0 0.069-0.012 0.158-0.053 0.251-0.040 0.68-0.042 1.377-0.040 2.073zM13.938 28.85c0.043 0.092 0.052 0.177 0.055 0.213 0.009 0.154-0.043 0.281-0.066 0.332-0.057 0.128-0.18 0.316-0.394 0.426l-0.147 0.075-0.087 0.012c-0.514 0.074-0.959-0.297-0.992-0.785-0.168-0.969-0.287-1.96-0.398-2.942-2.165-0.842-3.566-2.113-4.446-3.53-0.915-1.474-1.246-3.072-1.326-4.436v-0.003c-0.162-3.047 0.925-6.522 2.694-9.538 1.767-3.014 4.26-5.646 6.994-6.961 0.211-0.106 0.457-0.138 0.693-0.054s0.408 0.263 0.509 0.475c0.052 0.11 0.086 0.23 0.095 0.355 1.196 1.593 2.164 3.169 2.956 4.84 2.25 4.748 2.714 9.534 1.127 13.311l-0.002 0.006c-1.383 3.195-4.041 5.26-7.579 5.782 0.083 0.824 0.187 1.602 0.313 2.422z"></path>
</svg>
