<!-- Generated by IcoMoon.io -->
<svg version="1.1" xmlns="http://www.w3.org/2000/svg" width="32" height="32" viewBox="0 0 32 32">
<title>analytics</title>
<path d="M28.096 0c-1.709 0-3.097 1.344-3.097 2.996 0 0.445 0.101 0.867 0.281 1.247l-3.96 3.831c-0.393-0.174-0.829-0.271-1.289-0.271-0.875 0-1.665 0.352-2.229 0.918l-2.747-0.758c-0.124-1.543-1.461-2.761-3.087-2.761-1.709 0-3.097 1.344-3.097 2.996 0 0.472 0.113 0.918 0.315 1.316l-3.526 2.72c-0.499-0.334-1.105-0.529-1.757-0.529-1.709 0-3.097 1.344-3.097 2.996s1.388 2.996 3.097 2.996c1.709 0 3.097-1.344 3.097-2.996 0-0.55-0.154-1.067-0.423-1.51l3.448-2.66c0.531 0.415 1.207 0.664 1.943 0.664 1.022 0 1.929-0.481 2.494-1.221l2.476 0.683c-0.002 0.047-0.003 0.095-0.003 0.143 0 1.652 1.388 2.996 3.097 2.996s3.097-1.344 3.097-2.996c0-0.444-0.1-0.866-0.28-1.246l3.96-3.832c0.392 0.174 0.828 0.271 1.288 0.271 1.709 0 3.097-1.344 3.097-2.996s-1.388-2.996-3.097-2.996zM10.354 10.276v0c0.45 0.328 1.009 0.522 1.614 0.522 0.379 0 0.74-0.076 1.068-0.214-0.328 0.138-0.689 0.214-1.068 0.214-0.605 0-1.164-0.194-1.614-0.522zM9.515 9.259v0c-0.151-0.324-0.234-0.684-0.234-1.062 0-0.941 0.519-1.767 1.295-2.224-0.776 0.457-1.294 1.282-1.294 2.223 0 0.378 0.084 0.738 0.234 1.062zM4.88 13.806l-0.004-0.003c0.23 0.234 0.372 0.55 0.372 0.897 0 0.611-0.439 1.126-1.028 1.264 0.59-0.138 1.029-0.653 1.029-1.264 0-0.346-0.14-0.66-0.368-0.894 0 0 0 0 0 0zM4.829 13.757l0.001 0.001c-0.241-0.223-0.568-0.36-0.927-0.36-0.109 0-0.214 0.012-0.315 0.036 0.101-0.024 0.207-0.036 0.316-0.036 0.358 0 0.683 0.136 0.924 0.356l0.002 0.002zM17.343 10.768v0 0.030c0 1.434 1.206 2.601 2.688 2.601 0.197 0 0.389-0.021 0.574-0.060-0.185 0.039-0.377 0.060-0.574 0.060-1.482 0-2.688-1.166-2.688-2.601v-0.031zM18.258 8.846v0c0.184-0.157 0.391-0.29 0.615-0.394-0.224 0.104-0.43 0.237-0.615 0.394zM12.906 9.128c-0.111 0.105-0.241 0.192-0.385 0.255 0.144-0.063 0.274-0.149 0.385-0.254v0zM12.874 8.422l-0.007 0.024-0.006 0.022c-0.119 0.367-0.474 0.635-0.893 0.635-0.515 0-0.935-0.406-0.935-0.905s0.42-0.905 0.935-0.905 0.935 0.406 0.935 0.905c0 0.077-0.010 0.153-0.029 0.224zM13.273 7.882c-0.146-0.565-0.675-0.986-1.304-0.986-0.186 0-0.363 0.037-0.523 0.103 0.161-0.066 0.338-0.102 0.523-0.102 0.63 0 1.159 0.42 1.304 0.986v0zM27.12 5.419v0c0.303 0.115 0.632 0.177 0.976 0.177 0.181 0 0.357-0.017 0.528-0.050-0.171 0.033-0.348 0.050-0.529 0.050-0.344 0-0.674-0.063-0.976-0.177zM27.466 3.664c-0.010-0.010-0.019-0.020-0.029-0.030s-0.021-0.019-0.031-0.029c-0.152-0.161-0.245-0.375-0.245-0.61 0-0.499 0.42-0.905 0.935-0.905s0.935 0.406 0.935 0.905-0.42 0.905-0.935 0.905c-0.242 0-0.463-0.090-0.63-0.237zM25.592 3.941v0c-0.119-0.293-0.184-0.612-0.184-0.945 0-1.067 0.668-1.987 1.62-2.387-0.952 0.4-1.62 1.319-1.62 2.387 0 0.333 0.065 0.652 0.184 0.945zM25.484 4.604v0zM25.781 4.317v0zM20.385 9.543v0c-0.113-0.030-0.231-0.045-0.353-0.045-0.093 0-0.184 0.009-0.271 0.027 0.088-0.017 0.179-0.027 0.272-0.027 0.122 0 0.24 0.016 0.353 0.045zM21.328 10.456c0.031 0.109 0.047 0.224 0.047 0.342 0 0.604-0.429 1.114-1.008 1.259 0.58-0.145 1.008-0.655 1.008-1.259 0-0.118-0.016-0.233-0.047-0.342v0zM28.404 4.262c0.594-0.135 1.036-0.652 1.036-1.266 0-0.716-0.602-1.3-1.344-1.3-0.093 0-0.183 0.009-0.271 0.026 0.088-0.017 0.178-0.027 0.271-0.027 0.742 0 1.344 0.584 1.344 1.3 0 0.614-0.443 1.131-1.037 1.266zM29.031 29.909h-1.871v-17.416h1.871v17.416zM29.44 29.909v0 0zM30.112 10.403h-4.032c-0.597 0-1.081 0.469-1.081 1.045v18.461h-1.871v-10.658c0-0.577-0.484-1.045-1.081-1.045h-4.032c-0.597 0-1.081 0.469-1.081 1.045v10.658h-1.87v-13.259c0-0.577-0.484-1.045-1.081-1.045h-4.032c-0.597 0-1.081 0.469-1.081 1.045v13.259h-1.871v-6.757c0-0.577-0.484-1.045-1.081-1.045h-4.032c-0.597 0-1.081 0.469-1.081 1.045v6.791c-0.464 0.117-0.807 0.526-0.807 1.011 0 0.577 0.484 1.045 1.081 1.045h29.838c0.597 0 1.081-0.469 1.081-1.045v0c0-0.485-0.343-0.894-0.807-1.011v-18.495c0-0.577-0.484-1.045-1.081-1.045zM26.050 10.799c-0.357 0.015-0.642 0.301-0.642 0.65v0c0-0.349 0.285-0.634 0.642-0.65zM26.066 31.605v0zM25.234 31.605v0 0zM17.169 31.605v0zM17.999 31.605v0zM17.977 18.602c-0.353 0.019-0.633 0.303-0.633 0.649v0c0-0.346 0.28-0.63 0.633-0.649zM21.376 19.901v0 0zM20.967 29.909h-1.871v-9.613h1.871v9.613zM9.788 16.019c-0.292 0.071-0.508 0.327-0.508 0.631v0c0-0.304 0.216-0.56 0.508-0.631zM9.106 31.605v0zM9.935 31.605v0zM14 31.605v0zM11.033 29.909v-12.214h1.871v12.214h-1.871zM10.624 17.3v0zM1.853 22.503c-0.355 0.018-0.637 0.302-0.637 0.649v0c0-0.348 0.283-0.632 0.638-0.649zM0.807 30.361v0c-0.234 0.102-0.398 0.329-0.398 0.594 0 0.346 0.279 0.629 0.632 0.649v0c-0.352-0.020-0.631-0.303-0.631-0.649 0-0.264 0.163-0.492 0.397-0.594zM4.839 29.909h-1.871v-5.712h1.871v5.712zM2.56 23.802v0zM2.867 12.3c-0.969 0.393-1.652 1.321-1.652 2.4 0 1.434 1.206 2.601 2.688 2.601 0.197 0 0.389-0.021 0.574-0.060-0.185 0.039-0.377 0.060-0.574 0.060-1.483 0-2.688-1.166-2.688-2.601 0-1.079 0.682-2.006 1.651-2.4zM4.839 14.699c0 0.499-0.42 0.905-0.935 0.905s-0.935-0.406-0.935-0.905c0-0.499 0.42-0.905 0.935-0.905s0.935 0.406 0.935 0.905zM20.031 11.704c-0.515 0-0.935-0.406-0.935-0.905s0.42-0.905 0.935-0.905c0.516 0 0.935 0.406 0.935 0.905s-0.42 0.905-0.935 0.905zM1.887 31.605v0z"></path>
</svg>
