<!-- Generated by IcoMoon.io -->
<svg version="1.1" xmlns="http://www.w3.org/2000/svg" width="32" height="32" viewBox="0 0 32 32">
<title>architecture</title>
<path d="M16.48 2.369l-0.48-0.277-6.503 3.754v7.508l6.503 3.754 6.503-3.754v-7.508l-6.023-3.477zM11.418 6.954l4.582-2.646 4.583 2.646v5.291l-4.583 2.646-4.582-2.646v-5.292zM8 14.891l6.503 3.754v7.509l-6.503 3.754-6.503-3.754v-7.509l6.503-3.754zM8 17.108l-4.583 2.646v5.291l4.583 2.646 4.583-2.646v-5.291l-4.583-2.646zM24 14.891l6.503 3.754v7.509l-6.503 3.754-6.503-3.754v-7.509l6.503-3.754zM24 17.108l-4.583 2.646v5.291l4.583 2.646 4.583-2.646v-5.291l-4.583-2.646z"></path>
</svg>
