<!-- Generated by IcoMoon.io -->
<svg version="1.1" xmlns="http://www.w3.org/2000/svg" width="34" height="32" viewBox="0 0 34 32">
<title>automotive</title>
<path d="M4.172 14.131c-2.399 0.834-4.172 3.129-4.172 5.84s1.773 5.006 4.172 5.84v1.46c0 1.773 1.356 3.129 3.129 3.129s3.129-1.356 3.129-3.129v-1.043h12.515v1.043c0 1.773 1.356 3.129 3.129 3.129s3.129-1.356 3.129-3.129v-1.46c2.399-0.834 4.172-3.129 4.172-5.84s-1.773-5.006-4.172-5.84v-0.313c0-6.883-5.632-12.515-12.515-12.515s-12.515 5.632-12.515 12.515v0.313zM8.343 27.376c0 0.626-0.417 1.043-1.043 1.043s-1.043-0.417-1.043-1.043v-1.043h2.086v1.043zM27.116 27.376c0 0.626-0.417 1.043-1.043 1.043s-1.043-0.417-1.043-1.043v-1.043h2.086v1.043zM31.287 20.075c0 2.294-1.877 4.172-4.172 4.172h-20.858c-2.294 0-4.172-1.877-4.172-4.172s1.877-4.172 4.172-4.172h20.858c2.294 0 4.172 1.877 4.172 4.172zM16.687 3.389c5.736 0 10.429 4.693 10.429 10.429h-20.858c0-5.736 4.693-10.429 10.429-10.429zM6.257 16.946c-1.773 0-3.129 1.356-3.129 3.129s1.356 3.129 3.129 3.129c1.773 0 3.129-1.356 3.129-3.129s-1.356-3.129-3.129-3.129zM6.257 21.118c-0.626 0-1.043-0.417-1.043-1.043s0.417-1.043 1.043-1.043c0.626 0 1.043 0.417 1.043 1.043s-0.417 1.043-1.043 1.043zM27.117 23.204c-1.773 0-3.129-1.356-3.129-3.129s1.356-3.129 3.129-3.129c1.773 0 3.129 1.356 3.129 3.129s-1.356 3.129-3.129 3.129zM27.117 21.118c0.626 0 1.043-0.417 1.043-1.043s-0.417-1.043-1.043-1.043c-0.626 0-1.043 0.417-1.043 1.043s0.417 1.043 1.043 1.043zM20.858 16.946h-8.343c-0.626 0-1.043 0.417-1.043 1.043s0.417 1.043 1.043 1.043h8.343c0.626 0 1.043-0.417 1.043-1.043s-0.417-1.043-1.043-1.043zM12.515 21.118h8.343c0.626 0 1.043 0.417 1.043 1.043s-0.417 1.043-1.043 1.043h-8.343c-0.626 0-1.043-0.417-1.043-1.043s0.417-1.043 1.043-1.043zM12.827 6.83l-3.129 3.129c-0.417 0.417-0.417 1.043 0 1.46 0.209 0.209 0.521 0.313 0.73 0.313 0.313 0 0.521-0.104 0.73-0.313l3.129-3.129c0.417-0.417 0.417-1.043 0-1.46s-1.043-0.417-1.46 0zM15.957 9.959l3.65-3.65c0.417-0.417 1.043-0.417 1.46 0s0.417 1.043 0 1.46l-3.65 3.65c-0.209 0.209-0.417 0.313-0.73 0.313-0.209 0-0.521-0.104-0.73-0.313-0.417-0.417-0.417-1.043 0-1.46z"></path>
</svg>
