<!-- Generated by IcoMoon.io -->
<svg version="1.1" xmlns="http://www.w3.org/2000/svg" width="44" height="32" viewBox="0 0 44 32">
<title>bms</title>
<path d="M38.755 26.814c-0.753 0-1.385-0.633-1.385-1.385s0.633-1.385 1.385-1.385h1.374c0.553 0 1.019-0.466 1.019-1.019v-19.234c0-0.552-0.466-1.019-1.019-1.019h-36.339c-0.552 0-1.019 0.467-1.019 1.019v19.234c0 0.552 0.467 1.019 1.019 1.019h1.374c0.753 0 1.385 0.633 1.385 1.385s-0.633 1.385-1.385 1.385h-1.374c-2.133 0-3.79-1.738-3.79-3.79v-19.234c0-2.133 1.738-3.79 3.79-3.79h36.339c2.133 0 3.79 1.738 3.79 3.79v19.234c0 2.058-1.732 3.79-3.79 3.79h-1.374zM37.862 25.428c0 0.464 0.383 0.864 0.842 0.892-0.459-0.027-0.843-0.427-0.843-0.892 0-0.481 0.412-0.893 0.893-0.893h1.374c0.824 0 1.511-0.687 1.511-1.511v-19.234c0-0.794-0.637-1.46-1.42-1.508 0.783 0.048 1.42 0.715 1.42 1.508v19.234c0 0.824-0.687 1.511-1.511 1.511h-1.374c-0.481 0-0.893 0.412-0.893 0.893zM40.129 0.492h-36.339c-1.786 0-3.297 1.443-3.297 3.297v19.234c0 1.72 1.338 3.185 3.093 3.291-1.755-0.106-3.092-1.571-3.092-3.291v-19.234c0-1.855 1.511-3.297 3.297-3.297h36.339c0.069 0 0.137 0.002 0.205 0.006-0.068-0.004-0.136-0.006-0.205-0.006zM5.164 24.535c0.017 0 0.034 0.001 0.050 0.002-0.017-0.001-0.034-0.002-0.051-0.002h-1.374c-0.030 0-0.061-0.001-0.091-0.003 0.030 0.002 0.061 0.003 0.091 0.003h1.374zM6.193 7.843c-0.481 0-0.893 0.412-0.893 0.893 0 0.464 0.384 0.864 0.843 0.892-0.459-0.028-0.842-0.428-0.842-0.892 0-0.481 0.412-0.893 0.893-0.893h31.462c0.017 0 0.033 0 0.050 0.002-0.017-0.001-0.034-0.002-0.051-0.002h-31.462zM37.655 10.121c0.846 0 1.385-0.658 1.385-1.385 0-0.753-0.633-1.385-1.385-1.385h-31.462c-0.753 0-1.385 0.633-1.385 1.385s0.633 1.385 1.385 1.385h31.462zM6.193 12.239c-0.481 0-0.893 0.412-0.893 0.893 0 0.464 0.384 0.864 0.843 0.892-0.459-0.028-0.842-0.428-0.842-0.892 0-0.481 0.412-0.893 0.893-0.893h31.462c0.017 0 0.033 0.001 0.050 0.002-0.017-0.001-0.034-0.002-0.051-0.002h-31.462zM37.655 14.517h-31.462c-0.753 0-1.385-0.633-1.385-1.385s0.633-1.385 1.385-1.385h31.462c0.753 0 1.385 0.633 1.385 1.385 0 0.727-0.539 1.385-1.385 1.385zM15.411 21.101c0 0.485 0.396 0.881 0.882 0.881s0.882-0.396 0.882-0.881c0-0.486-0.396-0.882-0.882-0.882s-0.882 0.396-0.882 0.882zM13.053 21.101c0-1.787 1.453-3.24 3.24-3.24s3.24 1.453 3.24 3.24c0 1.787-1.453 3.24-3.24 3.24s-3.24-1.453-3.24-3.24zM17.666 21.101c0-0.731-0.574-1.33-1.294-1.372 0.721 0.041 1.295 0.641 1.295 1.372 0 0.757-0.617 1.374-1.374 1.374-0.027 0-0.053-0.001-0.080-0.002 0.026 0.002 0.053 0.002 0.079 0.002 0.757 0 1.374-0.616 1.374-1.374zM16.293 18.353c-1.515 0-2.748 1.232-2.748 2.748 0 1.424 1.089 2.599 2.479 2.734-1.389-0.136-2.478-1.311-2.478-2.734 0-1.516 1.233-2.748 2.748-2.748 0.056 0 0.112 0.002 0.167 0.005-0.055-0.003-0.111-0.005-0.168-0.005zM27.282 22.474h0.002c-0.758 0-1.374-0.616-1.374-1.374 0-0.749 0.601-1.359 1.346-1.374-0.746 0.014-1.348 0.625-1.348 1.374 0 0.757 0.616 1.374 1.374 1.374zM30.029 21.101c0 1.5-1.208 2.723-2.703 2.747 1.495-0.023 2.704-1.247 2.704-2.747 0-1.516-1.233-2.748-2.748-2.748h-0.002c1.515 0 2.748 1.232 2.748 2.748zM26.402 21.101c0 0.485 0.396 0.881 0.881 0.881s0.882-0.396 0.882-0.881c0-0.486-0.396-0.882-0.882-0.882s-0.881 0.396-0.881 0.882zM24.043 21.101c0-1.787 1.453-3.24 3.24-3.24s3.24 1.453 3.24 3.24c0 1.787-1.453 3.24-3.24 3.24s-3.24-1.453-3.24-3.24zM21.789 25.909c-0.758 0-1.374 0.616-1.374 1.374 0 0.728 0.569 1.325 1.285 1.371-0.717-0.045-1.287-0.643-1.287-1.371 0-0.758 0.616-1.374 1.374-1.374 0.028 0 0.056 0.001 0.084 0.002-0.027-0.001-0.055-0.002-0.082-0.002zM21.788 30.031c1.515 0 2.748-1.233 2.748-2.748 0-1.46-1.143-2.657-2.581-2.743 1.437 0.087 2.579 1.284 2.579 2.743 0 1.515-1.233 2.748-2.748 2.748-0.056 0-0.111-0.002-0.166-0.005 0.056 0.003 0.112 0.005 0.168 0.005zM20.908 27.283c0 0.486 0.396 0.881 0.882 0.881s0.882-0.396 0.882-0.881c0-0.486-0.396-0.882-0.882-0.882s-0.882 0.396-0.882 0.882zM18.548 27.283c0-1.787 1.453-3.24 3.24-3.24s3.24 1.453 3.24 3.24c0 1.787-1.453 3.24-3.24 3.24s-3.24-1.453-3.24-3.24zM10.798 25.909c0.028 0 0.056 0.001 0.084 0.003-0.028-0.002-0.057-0.003-0.086-0.003-0.758 0-1.374 0.616-1.374 1.374 0 0.73 0.572 1.329 1.292 1.371-0.719-0.044-1.29-0.642-1.29-1.371 0-0.758 0.616-1.374 1.374-1.374zM13.546 27.283c0-1.46-1.143-2.657-2.581-2.743 1.437 0.087 2.579 1.284 2.579 2.743 0 1.515-1.233 2.748-2.748 2.748-0.056 0-0.111-0.002-0.166-0.005 0.056 0.003 0.112 0.005 0.168 0.005 1.515 0 2.748-1.233 2.748-2.748zM9.916 27.283c0 0.486 0.396 0.881 0.882 0.881s0.882-0.396 0.882-0.881c0-0.486-0.396-0.882-0.882-0.882s-0.882 0.396-0.882 0.882zM7.558 27.283c0-1.787 1.453-3.24 3.24-3.24s3.24 1.453 3.24 3.24c0 1.787-1.453 3.24-3.24 3.24s-3.24-1.453-3.24-3.24zM32.777 25.909c0.757 0 1.374 0.616 1.374 1.374 0 0.642-0.443 1.183-1.039 1.332 0.596-0.15 1.039-0.69 1.039-1.332 0-0.758-0.616-1.374-1.374-1.374-0.101 0-0.2 0.011-0.295 0.032 0.095-0.021 0.193-0.032 0.294-0.032zM30.031 27.283c0 1.515 1.233 2.748 2.748 2.748 0.194 0 0.384-0.020 0.568-0.059-0.183 0.039-0.373 0.059-0.568 0.059-1.515 0-2.748-1.233-2.748-2.748 0-1.267 0.863-2.337 2.031-2.653-1.168 0.316-2.031 1.386-2.031 2.653zM32.777 28.165c0.486 0 0.881-0.396 0.881-0.881s-0.396-0.882-0.881-0.882c-0.486 0-0.881 0.396-0.881 0.882s0.396 0.881 0.881 0.881zM29.538 27.283c0-1.787 1.453-3.24 3.24-3.24s3.24 1.453 3.24 3.24c0 1.787-1.453 3.24-3.24 3.24s-3.24-1.453-3.24-3.24z"></path>
</svg>
