<!-- Generated by IcoMoon.io -->
<svg version="1.1" xmlns="http://www.w3.org/2000/svg" width="38" height="32" viewBox="0 0 38 32">
<title>city</title>
<path d="M15.074 2.679l18.898 11.167c0.541 0.32 0.563 1.096 0.039 1.445l-2.897 1.931-19.179-11.624 2.022-2.696c0.261-0.348 0.742-0.444 1.117-0.223zM29.609 19.303l-0.927 2.781c-0.178 0.534-0.815 0.752-1.283 0.44l-18.14-12.093c-0.416-0.278-0.506-0.852-0.193-1.243l1.258-1.572 19.285 11.688zM32.222 19.559l1.421-0.947c0.085 0.618-0.003 1.11-0.276 1.436-0.3 0.357-0.842 0.574-1.526 0.656l0.382-1.145zM35.898 17.048c1.598-1.516 1.365-4.23-0.625-5.406l-18.897-11.167c-1.498-0.885-3.423-0.502-4.467 0.891l-2.041 2.722-2.801 3.501c-1.251 1.563-0.894 3.862 0.772 4.972l4.515 3.010-0.992 1.654c-0.422 0.703-0.448 1.544-0.128 2.249l-0.904 1.784c-0.145 0.287-0.44 0.468-0.761 0.468h-3.907c-0.329-1.229-1.45-2.133-2.782-2.133-1.591 0-2.88 1.289-2.88 2.88v5.333c0 1.591 1.289 2.88 2.88 2.88s2.88-1.289 2.88-2.88v-0.32h7.032c1.267 0 2.43-0.702 3.021-1.824l1.028-1.953c0.861 0.059 1.734-0.316 2.274-1.076l1.232-1.734 5.632 3.755c1.749 1.166 4.087 0.48 4.968-1.355 0.257 0.007 0.549 0.004 0.86-0.019 1.008-0.076 2.513-0.385 3.52-1.584 1.058-1.26 0.985-2.817 0.788-3.815-0.060-0.305-0.137-0.587-0.216-0.832zM18.216 19.478l-1.191 1.675c0 0 0 0 0 0s-0.002 0.001-0.004 0.001c-0.003 0-0.005 0-0.006 0l-3.396-2.716 0.867-1.445 3.729 2.486zM14.588 22.491l-1.041 1.978c-0.148 0.28-0.438 0.456-0.755 0.456h-7.032v-0.64h3.809c1.286 0 2.464-0.723 3.045-1.871l0.542-1.069 1.432 1.146zM2.88 22.151c0.177 0 0.32 0.143 0.32 0.32v5.333c0 0.177-0.143 0.32-0.32 0.32s-0.32-0.143-0.32-0.32v-5.333c0-0.177 0.143-0.32 0.32-0.32z"></path>
</svg>
