<!-- Generated by IcoMoon.io -->
<svg version="1.1" xmlns="http://www.w3.org/2000/svg" width="43" height="32" viewBox="0 0 43 32">
<title>cloud-development</title>
<path d="M13.855 5.434l0.017 0.006 0.017 0.004c0.448 0.112 1.004 0.028 1.323-0.41 1.533-1.6 3.544-2.405 5.817-2.405 3.084 0 5.84 1.702 7.22 4.462 0.247 0.494 0.765 0.791 1.319 0.681 0.182-0.004 0.341-0.027 0.475-0.046v0l0.009-0.001c0.152-0.022 0.272-0.038 0.407-0.038 4.976 0 8.971 3.995 8.971 8.971s-3.995 8.971-8.971 8.971c-0.361 0-0.697 0.122-0.945 0.37s-0.37 0.584-0.37 0.945c0 0.361 0.122 0.697 0.37 0.945s0.584 0.37 0.945 0.37c6.424 0 11.6-5.176 11.6-11.6 0-6.34-5.178-11.514-11.6-11.514h-0.252c-1.916-3.181-5.42-5.143-9.176-5.143-2.698 0-5.147 0.934-7.17 2.713-0.446-0.073-0.921-0.142-1.401-0.142-3.489 0-6.454 2.452-7.178 5.733-3.297 1.909-5.28 5.435-5.28 9.295 0 5.91 4.833 10.743 10.743 10.743 0.361 0 0.697-0.122 0.945-0.37s0.37-0.584 0.37-0.945c0-0.361-0.122-0.697-0.37-0.945s-0.584-0.37-0.945-0.37c-4.462 0-8.114-3.652-8.114-8.114 0-3.084 1.702-5.84 4.462-7.22l0.025-0.013 0.024-0.016c0.142-0.095 0.307-0.219 0.432-0.397 0.128-0.183 0.194-0.394 0.2-0.635 0.325-2.34 2.276-4.12 4.686-4.12 0.463 0 0.928 0.077 1.398 0.234zM14.196 5.030c-0.065-0.004-0.13-0.014-0.196-0.030-0.422-0.141-0.844-0.224-1.265-0.249 0.422 0.025 0.844 0.108 1.266 0.249 0.066 0.016 0.131 0.027 0.195 0.030zM21.635 2.192c3.010 0.208 5.656 1.961 7.023 4.693 0.135 0.269 0.375 0.433 0.638 0.449-0.263-0.016-0.504-0.18-0.638-0.449-1.366-2.732-4.013-4.485-7.022-4.693zM31.305 7.266c4.828 0.425 8.581 4.449 8.581 9.391 0 5.229-4.2 9.429-9.429 9.429-0.514 0-0.857 0.343-0.857 0.857 0 0.492 0.314 0.827 0.792 0.855-0.478-0.028-0.792-0.363-0.792-0.855 0-0.514 0.343-0.857 0.857-0.857 5.229 0 9.429-4.2 9.429-9.429 0-4.943-3.753-8.966-8.581-9.391zM30.746 5.604c-0.096-0.002-0.192-0.004-0.288-0.004h-0.514c0 0 0 0 0 0h0.514c0.096 0 0.192 0.001 0.288 0.004zM21.545 0.47c-0.172-0.009-0.344-0.013-0.516-0.013-2.657 0-5.057 0.943-7.029 2.743 0 0 0 0 0 0v0c1.971-1.8 4.371-2.743 7.029-2.743 0.173 0 0.345 0.004 0.516 0.013zM10.208 26.155c0.177 0.011 0.355 0.017 0.534 0.017 0.022 0 0.044 0.001 0.066 0.002-0.021-0.001-0.043-0.002-0.065-0.002-0.18 0-0.358-0.006-0.535-0.017zM10.101 27.866c-5.361-0.334-9.644-4.824-9.644-10.266 0-3.771 1.971-7.2 5.229-9 0.6-3.171 3.429-5.571 6.771-5.571 0.096 0 0.193 0.003 0.289 0.008-0.096-0.005-0.193-0.008-0.289-0.008-3.343 0-6.171 2.4-6.771 5.571-3.257 1.8-5.229 5.229-5.229 9 0 5.442 4.283 9.932 9.644 10.266zM18.743 30.818l1.713-1.713-3.505-3.505 3.505-3.505-1.713-1.713-5.218 5.218 5.218 5.218zM18.743 21.029v0 0zM25.030 25.6l-3.505-3.505 1.713-1.713 5.218 5.218-5.218 5.218-1.713-1.713 3.505-3.505zM22.171 29.105v0 0z"></path>
</svg>
