<!-- Generated by IcoMoon.io -->
<svg version="1.1" xmlns="http://www.w3.org/2000/svg" width="41" height="32" viewBox="0 0 41 32">
<title>cloud</title>
<path d="M11.886 4.434c0.394 0.024 0.788 0.101 1.181 0.232 0.061 0.015 0.122 0.025 0.182 0.028-0.060-0.004-0.121-0.013-0.183-0.028-0.394-0.131-0.787-0.209-1.181-0.232zM9.528 24.411c0.165 0.010 0.331 0.016 0.499 0.016 0.021 0 0.041 0.001 0.061 0.002-0.020-0.001-0.040-0.002-0.061-0.002-0.168 0-0.334-0.005-0.499-0.016zM9.428 26.008c-5.004-0.312-9.001-4.502-9.001-9.581 0-3.52 1.84-6.72 4.88-8.4 0.56-2.96 3.2-5.2 6.32-5.2 0.101 0 0.203 0.004 0.304 0.010-0.101-0.006-0.202-0.010-0.303-0.010-3.12 0-5.76 2.24-6.32 5.2-3.040 1.68-4.88 4.88-4.88 8.4 0 5.079 3.997 9.27 9.001 9.581zM20.193 2.046c2.809 0.194 5.279 1.83 6.554 4.38 0.126 0.251 0.35 0.404 0.595 0.419-0.246-0.015-0.47-0.168-0.596-0.419-1.275-2.55-3.745-4.186-6.554-4.38zM29.311 6.79c4.461 0.44 7.916 4.175 7.916 8.757 0 4.88-3.92 8.8-8.8 8.8-0.48 0-0.8 0.32-0.8 0.8 0 0.459 0.293 0.772 0.739 0.798-0.446-0.026-0.739-0.339-0.739-0.798 0-0.48 0.32-0.8 0.8-0.8 4.88 0 8.8-3.92 8.8-8.8 0-4.581-3.455-8.316-7.915-8.757zM28.69 5.23c-0.087-0.002-0.175-0.003-0.263-0.003h-0.48c0 0 0 0 0 0h0.48c0.088 0 0.176 0.001 0.264 0.003zM20.040 0.436c-0.137-0.006-0.275-0.009-0.413-0.009-2.48 0-4.72 0.88-6.56 2.56v0c0 0 0 0 0 0 1.84-1.68 4.080-2.56 6.56-2.56 0.138 0 0.276 0.003 0.414 0.009zM19.627 2.453c2.878 0 5.451 1.589 6.738 4.164 0.231 0.461 0.714 0.738 1.231 0.635 0.17-0.004 0.319-0.025 0.443-0.043l0.008-0.001c0.142-0.020 0.254-0.036 0.38-0.036 4.644 0 8.373 3.729 8.373 8.373s-3.729 8.373-8.373 8.373c-0.337 0-0.651 0.114-0.882 0.345s-0.345 0.545-0.345 0.882c0 0.337 0.114 0.651 0.345 0.882s0.545 0.345 0.882 0.345c5.996 0 10.827-4.831 10.827-10.827 0-5.918-4.833-10.747-10.827-10.747h-0.235c-1.788-2.969-5.058-4.8-8.565-4.8-2.519 0-4.804 0.872-6.692 2.532-0.416-0.068-0.86-0.132-1.308-0.132-3.257 0-6.024 2.288-6.699 5.351-3.077 1.782-4.928 5.073-4.928 8.676 0 5.516 4.511 10.027 10.027 10.027 0.337 0 0.651-0.114 0.882-0.345s0.345-0.545 0.345-0.882c0-0.337-0.114-0.651-0.345-0.882s-0.545-0.345-0.882-0.345c-4.164 0-7.573-3.409-7.573-7.573 0-2.878 1.589-5.451 4.164-6.738l0.024-0.012 0.022-0.015c0.133-0.088 0.286-0.204 0.403-0.37 0.119-0.17 0.181-0.367 0.187-0.593 0.303-2.184 2.124-3.845 4.374-3.845 0.432 0 0.866 0.072 1.305 0.218l0.016 0.005 0.016 0.004c0.418 0.105 0.937 0.026 1.234-0.383 1.431-1.494 3.308-2.244 5.429-2.244zM22.109 25.912c-0.629-0.699-1.548-1.059-2.483-1.059-0.915 0-1.85 0.426-2.498 1.075-0.487 0.487-1.237 0.487-1.723 0-0.485-0.484-0.487-1.23-0.006-1.717 1.124-1.208 2.598-1.811 4.228-1.811s3.103 0.603 4.228 1.811c0.481 0.487 0.479 1.233-0.006 1.717-0.105 0.105-0.227 0.201-0.378 0.268-0.153 0.068-0.313 0.097-0.483 0.097-0.266 0-0.617-0.12-0.862-0.365l-0.016-0.016zM22.952 25.865c-0.159-0.010-0.377-0.090-0.525-0.239-0.63-0.7-1.505-1.094-2.411-1.181 0.906 0.087 1.781 0.481 2.411 1.181 0.149 0.149 0.366 0.228 0.525 0.239zM16.215 25.865c-0.182-0.013-0.362-0.092-0.508-0.238-0.32-0.32-0.32-0.8 0-1.12 1.040-1.12 2.4-1.68 3.92-1.68 0.095 0 0.189 0.002 0.283 0.007-0.094-0.004-0.188-0.007-0.283-0.007-1.52 0-2.88 0.56-3.92 1.68-0.32 0.32-0.32 0.8 0 1.12 0.146 0.146 0.326 0.226 0.509 0.238zM19.627 25.6c-1.596 0-2.827 1.231-2.827 2.827s1.231 2.827 2.827 2.827c1.596 0 2.827-1.231 2.827-2.827s-1.231-2.827-2.827-2.827zM19.627 28.8c-0.143 0-0.229-0.046-0.278-0.095s-0.095-0.135-0.095-0.278 0.046-0.229 0.095-0.278c0.049-0.049 0.135-0.095 0.278-0.095s0.229 0.046 0.278 0.095c0.049 0.049 0.095 0.135 0.095 0.278s-0.046 0.229-0.095 0.278c-0.049 0.049-0.135 0.095-0.278 0.095zM19.628 19.2c2.429 0 4.778 0.922 6.542 2.685 0.487 0.487 0.487 1.237 0 1.723-0.105 0.105-0.227 0.201-0.378 0.268-0.153 0.068-0.313 0.097-0.483 0.097-0.266 0-0.617-0.12-0.862-0.365-1.276-1.276-3.005-1.955-4.818-1.955s-3.543 0.679-4.818 1.955c-0.487 0.487-1.237 0.487-1.723 0s-0.487-1.237 0-1.723c1.763-1.763 4.113-2.685 6.542-2.685zM28.407 19.645c-2.319-2.319-5.467-3.645-8.782-3.645s-6.463 1.326-8.782 3.645c-0.487 0.487-0.487 1.237 0 1.723s1.237 0.487 1.723 0c1.919-1.919 4.37-2.915 7.058-2.915 2.68 0 5.135 1.070 7.062 2.918 0.245 0.243 0.594 0.362 0.858 0.362 0.17 0 0.33-0.029 0.483-0.097 0.151-0.067 0.273-0.163 0.378-0.268 0.487-0.487 0.487-1.237 0-1.723zM20.653 18.077c2.398 0.238 4.58 1.307 6.333 2.989 0.149 0.149 0.366 0.228 0.525 0.239-0.159-0.010-0.377-0.090-0.525-0.239-1.753-1.683-3.935-2.751-6.333-2.989zM11.655 21.305c-0.182-0.013-0.362-0.092-0.508-0.238-0.32-0.32-0.32-0.8 0-1.12 2.24-2.24 5.28-3.52 8.48-3.52 0.108 0 0.216 0.001 0.324 0.004-0.108-0.003-0.216-0.004-0.325-0.004-3.2 0-6.24 1.28-8.48 3.52-0.32 0.32-0.32 0.8 0 1.12 0.146 0.146 0.326 0.226 0.509 0.238zM19.627 26.027c0.056 0 0.111 0.002 0.166 0.005-0.055-0.003-0.11-0.005-0.165-0.005-1.36 0-2.4 1.040-2.4 2.4 0 1.304 0.956 2.314 2.234 2.395-1.278-0.081-2.235-1.091-2.235-2.395 0-1.36 1.040-2.4 2.4-2.4zM19.566 29.225c0.020 0.001 0.040 0.002 0.061 0.002 0.48 0 0.8-0.32 0.8-0.8 0-0.459-0.293-0.772-0.739-0.798 0.446 0.026 0.739 0.339 0.739 0.798 0 0.48-0.32 0.8-0.8 0.8-0.021 0-0.041-0.001-0.061-0.002zM13.387 22.187c1.68-1.68 3.92-2.56 6.24-2.56 0.145 0 0.29 0.003 0.434 0.010-0.144-0.007-0.289-0.010-0.434-0.010-2.32 0-4.56 0.88-6.24 2.56-0.32 0.32-0.32 0.8 0 1.12 0.146 0.146 0.326 0.226 0.508 0.238-0.183-0.013-0.362-0.092-0.509-0.238-0.32-0.32-0.32-0.8 0-1.12zM25.273 23.545c-0.158-0.010-0.376-0.090-0.525-0.239-1.19-1.19-2.748-1.89-4.405-2.046 1.657 0.156 3.215 0.856 4.405 2.046 0.149 0.149 0.367 0.228 0.525 0.239z"></path>
</svg>
