<!-- Generated by IcoMoon.io -->
<svg version="1.1" xmlns="http://www.w3.org/2000/svg" width="32" height="32" viewBox="0 0 32 32">
<title>comparison</title>
<path d="M11.411 0c-6.303 0-11.411 5.112-11.411 11.418v0.003c0.021 6.284 5.128 11.396 11.43 11.396 1.638 0 3.183-0.341 4.589-0.967l1.2 1.201c0.366 0.366 0.874 0.428 1.297 0.271l7.459 7.463c1.050 1.051 2.734 1.051 3.784 0l1.027-1.027c1.050-1.050 1.050-2.734 0-3.785l-7.453-7.458c0.162-0.433 0.056-0.927-0.237-1.262l-0.019-0.021-1.221-1.222c0.626-1.411 0.966-2.97 0.966-4.592 0-6.285-5.107-11.418-11.411-11.418zM27.687 29.056l-7.379-7.383 1.37-1.371 7.378 7.383c0.093 0.093 0.093 0.251 0 0.344l-1.027 1.027c-0.093 0.093-0.25 0.093-0.342 0zM2.462 11.418c0-4.957 4.016-8.975 8.968-8.975s8.968 4.036 8.968 8.975c0 4.956-4.034 8.975-8.968 8.975-4.951 0-8.968-4.036-8.968-8.975zM13.505 9.046c-0.023-0.015-0.046-0.031-0.068-0.047l-0.014-0.010-0.013-0.011c-0.585-0.478-1.267-0.719-1.998-0.719-1.737 0-3.157 1.42-3.157 3.159s1.42 3.159 3.157 3.159c1.728 0 3.143-1.406 3.157-3.133l-2.323 2.322c-0.453 0.397-1.199 0.451-1.689-0.039l-1.473-1.474-0.019-0.021c-0.396-0.453-0.45-1.199 0.039-1.688l0.020-0.020 0.021-0.019c0.453-0.397 1.199-0.451 1.689 0.039l0.005 0.005 0.578 0.588 2.089-2.090zM16.38 9.63c0.271 0.177 0.471 0.459 0.536 0.787 0.072 0.358 0.094 0.687 0.094 1.001 0 3.066-2.491 5.583-5.58 5.583-3.086 0-5.596-2.512-5.619-5.577v-0.006c0-3.066 2.491-5.583 5.58-5.583 1.273 0 2.526 0.431 3.533 1.251 0.118 0.093 0.217 0.207 0.293 0.335 0.445-0.223 1.023-0.189 1.427 0.215l0.020 0.020 0.019 0.021c0.396 0.453 0.45 1.199-0.039 1.688l-0.264 0.264z"></path>
</svg>
