<!-- Generated by IcoMoon.io -->
<svg version="1.1" xmlns="http://www.w3.org/2000/svg" width="28" height="32" viewBox="0 0 28 32">
<title>consumer</title>
<path d="M2.871 0c-1.612 0-2.871 1.182-2.871 2.745v25.098c0 1.563 1.258 2.745 2.871 2.745h21.082c1.612 0 2.871-1.182 2.871-2.745v-25.098c0-1.563-1.258-2.745-2.871-2.745h-21.082zM2.227 2.745c0-0.194 0.067-0.339 0.169-0.436 0.103-0.098 0.261-0.165 0.475-0.165h21.082c0.213 0 0.372 0.067 0.475 0.165s0.169 0.242 0.169 0.436v3.948h-22.369v-3.948zM2.227 27.843v-19.007h22.369v19.007c0 0.194-0.067 0.339-0.169 0.436s-0.261 0.165-0.475 0.165h-21.082c-0.213 0-0.372-0.067-0.475-0.165-0.102-0.097-0.169-0.242-0.169-0.436zM20.439 3.346h1.757c0.314 0 0.595 0.1 0.799 0.295 0.206 0.196 0.315 0.469 0.315 0.777s-0.109 0.581-0.315 0.777c-0.204 0.195-0.485 0.295-0.799 0.295h-1.757c-0.314 0-0.595-0.1-0.799-0.295s-0.315-0.469-0.315-0.777 0.109-0.581 0.315-0.777c0.204-0.195 0.485-0.295 0.799-0.295zM13.185 19.731c0 0 0 0 0 0l-0.552-0.168c1.422 1.354 3.427 1.911 5.31 1.618l-0.569-0.173c0.001 0 0.002 0 0.004 0l0.568 0.173c0.702-0.11 1.387-0.338 2.019-0.686l-0.004 0.013c-0.008 0.029-0.020 0.074-0.022 0.122-0.002 0.004-0.005 0.009-0.008 0.017-0.002 0.005-0.005 0.011-0.009 0.017l-0.002 0.003c-0.010 0.019-0.026 0.050-0.039 0.083s-0.028 0.082-0.030 0.14l-0.003 0.010c-0.005 0.015-0.013 0.034-0.025 0.057-0.025 0.048-0.055 0.087-0.075 0.106l-0.073 0.069v0.084c-0.003 0.007-0.008 0.016-0.017 0.033l-0.002 0.003c-0.010 0.019-0.026 0.050-0.039 0.083-0.005 0.014-0.011 0.030-0.016 0.049-0.047 0.068-0.071 0.139-0.085 0.179l-0.004 0.011c-0.017 0.049-0.026 0.068-0.029 0.074 0 0 0 0 0 0.001l-0.001 0.002-0.072 0.068v0.084c-0.003 0.007-0.008 0.016-0.017 0.033l-0.002 0.003c-0.010 0.019-0.026 0.050-0.039 0.083-0.005 0.012-0.009 0.025-0.014 0.040-0.043 0.053-0.081 0.112-0.11 0.167-0.024 0.046-0.052 0.106-0.068 0.171-0.009 0.011-0.017 0.022-0.024 0.032l-0.004 0.005h-0.021l-0.068 0.065c-0.061 0.058-0.117 0.138-0.156 0.194l-0.006 0.009c-0.049 0.069-0.078 0.11-0.101 0.132l-0.073 0.070v0.043c-0.012 0.013-0.026 0.030-0.038 0.049-0.011 0.017-0.020 0.036-0.028 0.056-0.051 0.052-0.096 0.105-0.134 0.149v0c-0.018 0.020-0.033 0.039-0.047 0.054-0.042 0.047-0.076 0.078-0.108 0.1h-0.119l-0.068 0.065c-0.177 0.168-0.24 0.227-0.378 0.293l-0.034 0.016-0.203 0.193c-0.024 0.022-0.067 0.051-0.14 0.097l-0.009 0.006c-0.059 0.037-0.142 0.090-0.203 0.148-0.013 0.013-0.020 0.017-0.037 0.026v0c-0.011 0.006-0.025 0.015-0.048 0.029s-0.067 0.044-0.103 0.093c-0.012 0.017-0.022 0.034-0.031 0.052-0.020 0.013-0.045 0.027-0.072 0.040-0.024 0.012-0.046 0.020-0.063 0.025-0.009 0.003-0.015 0.004-0.017 0.004-0.056 0.001-0.105 0.014-0.14 0.027-0.033 0.012-0.065 0.027-0.085 0.036v0l-0.003 0.001c-0.023 0.011-0.034 0.016-0.042 0.019h-0.083l-0.066 0.063c-0.002 0.001-0.006 0.003-0.013 0.007-0.017 0.008-0.039 0.015-0.074 0.026l-0.004 0.001c-0.030 0.010-0.073 0.023-0.115 0.041-0.024 0.010-0.051 0.024-0.079 0.042-0.019 0.005-0.037 0.010-0.052 0.015-0.033 0.012-0.065 0.027-0.085 0.037l-0.003 0.001c-0.023 0.011-0.034 0.016-0.042 0.019h-0.083l-0.066 0.063c-0.002 0.001-0.006 0.003-0.013 0.007-0.017 0.008-0.039 0.015-0.074 0.026l-0.004 0.001c-0.030 0.010-0.073 0.023-0.115 0.041-0.024 0.010-0.051 0.024-0.079 0.042-0.019 0.005-0.037 0.010-0.052 0.015-0.033 0.012-0.065 0.027-0.085 0.037v0l-0.003 0.002c-0.023 0.011-0.034 0.016-0.043 0.019-0.049 0.002-0.095 0.012-0.127 0.020-0.036 0.009-0.074 0.021-0.105 0.031l-0.003 0.001c-0.034 0.011-0.061 0.019-0.084 0.025-0.016 0.004-0.023 0.005-0.025 0.005h-0.003c-0.077 0-0.21 0-0.344 0.089-0.082 0.010-0.148 0.030-0.198 0.046v0l-0.005 0.002c-0.066 0.021-0.101 0.031-0.148 0.031h-0.917c-0.207-0.084-0.415-0.084-0.638-0.084h-0.202c-0.055 0-0.116-0.013-0.209-0.036l-0.009-0.002c-0.082-0.020-0.194-0.046-0.31-0.046h-0.175c-0.055 0-0.116-0.013-0.209-0.035l-0.009-0.002c-0.082-0.020-0.193-0.046-0.309-0.046h-0.038c-0.092-0.038-0.18-0.059-0.251-0.076v0l-0.007-0.002c-0.091-0.021-0.155-0.038-0.217-0.067l-0.048-0.023h-0.095c-1.579-0.645-2.824-1.832-3.5-3.329v-0.092l-0.027-0.051c-0.030-0.057-0.046-0.115-0.069-0.201l-0.002-0.007c-0.018-0.067-0.040-0.151-0.079-0.24-0.003-0.038-0.011-0.088-0.037-0.137-0.018-0.035-0.041-0.062-0.058-0.080-0.011-0.073-0.032-0.132-0.047-0.175l-0.002-0.006c-0.022-0.063-0.031-0.092-0.031-0.131v-0.006c0-0.039 0-0.107-0.019-0.179-0.013-0.048-0.033-0.095-0.061-0.139l0.446-0.425c1.49-1.419 3.983-1.419 5.473 0l0.551 0.168zM17.948 21.181c-0.001 0-0.002 0-0.003 0l1.54 0.469c0 0 0-0.001 0.001-0.002l-1.537-0.468zM13.411 10.039c-4.95 0-9.020 3.859-9.020 8.601v0.008c0 0.322 0 0.593 0.088 0.943 0.003 0.135 0.026 0.266 0.046 0.378l0.001 0.008c0.023 0.129 0.040 0.234 0.040 0.336v0.124l0.013 0.038c0.034 0.098 0.053 0.196 0.074 0.306l0.005 0.026c0.020 0.104 0.045 0.235 0.101 0.35 0.816 2.401 2.708 4.371 5.049 5.314l0.042 0.017h0.097c0.11 0.036 0.205 0.072 0.305 0.11l0.002 0.001c0.109 0.041 0.224 0.085 0.362 0.129l0.035 0.011h0.076c0.109 0.042 0.227 0.063 0.326 0.080l0.028 0.005c0.115 0.020 0.22 0.038 0.325 0.071l0.035 0.011h0.212c0.057 0 0.133 0.013 0.248 0.033v0l0.030 0.005c0.121 0.021 0.272 0.045 0.426 0.045h0.174c0.113 0 0.249 0.018 0.408 0.040l0.009 0.001c0.147 0.020 0.314 0.043 0.462 0.043 4.95 0 9.020-3.86 9.020-8.602 0-0.17 0-0.439-0.091-0.794-0.462-4.304-4.345-7.639-8.929-7.639zM14.188 17.884c-1.957-1.864-5.019-2.218-7.349-0.922 0.808-2.715 3.463-4.78 6.572-4.78 3.361 0 6.126 2.288 6.686 5.287l-0.436 0.415c-1.49 1.419-3.983 1.419-5.473 0z"></path>
</svg>
