<!-- Generated by IcoMoon.io -->
<svg version="1.1" xmlns="http://www.w3.org/2000/svg" width="38" height="32" viewBox="0 0 38 32">
<title>development-support</title>
<path d="M16.493 11.169l-5.241-5.584 5.241-5.585 1.644 1.751-3.598 3.833 3.598 3.833-1.644 1.751zM16.493 10.584v0zM23.062 5.585l-3.598-3.833 1.644-1.751 5.241 5.585-5.241 5.584-1.644-1.751 3.598-3.833zM20.013 9.418v0 0zM16.014 29.194h0.015c0.601 0 1.188 0.017 1.775 0.035l0.029 0.001c0.575 0.017 1.152 0.035 1.731 0.035 2.548 0 4.926-0.215 7.302-1.124 2.38-0.91 4.715-2.499 7.211-5.181l0.002-0.002c0.949-1.027 1.882-2.073 2.507-3.017 0.313-0.472 0.569-0.948 0.706-1.408 0.134-0.452 0.169-0.945-0.040-1.403-0.182-0.477-0.562-0.775-1.024-0.932-0.447-0.152-0.994-0.184-1.601-0.147-1.028 0.045-1.949 0.52-2.831 1.271-0.869 0.74-1.742 1.784-2.688 3.053-0.822 0.779-1.969 1.18-3.158 1.294-1.202 0.116-2.376-0.069-3.161-0.383-0.374-0.163-0.656-0.331-0.843-0.486-0.093-0.077-0.152-0.143-0.187-0.192-0.007-0.010-0.013-0.020-0.018-0.028 0.032-0.084 0.144-0.259 0.532-0.513l0.015-0.010c0.27-0.188 0.561-0.335 0.877-0.494v0c0.112-0.056 0.227-0.114 0.345-0.176 0.909-0.458 1.811-0.927 2.52-1.484 0.718-0.566 1.297-1.268 1.469-2.212l0.003-0.020c0.137-0.934 0.121-1.772-0.432-2.35-0.524-0.548-1.25-0.454-1.809-0.308l-0.037 0.010-0.035 0.014c-0.733 0.295-1.414 0.487-2.077 0.674l-0.318 0.090c-2.377 0.71-4.297 1.301-6.354 2.71l-0.004 0.003c-0.783 0.546-1.3 1.048-1.651 1.388-0.119 0.116-0.22 0.212-0.304 0.286l-0.060 0.057c-0.364 0.347-0.489 0.465-0.761 0.554-0.194 0.064-0.465 0.11-0.906 0.137v-0.224c0-0.278-0.091-0.576-0.315-0.811-0.227-0.238-0.53-0.345-0.825-0.345h-0.89c-0.050-0.156-0.133-0.306-0.258-0.437-0.227-0.238-0.53-0.345-0.825-0.345h-8.498c-0.295 0-0.597 0.107-0.825 0.345-0.224 0.234-0.315 0.533-0.315 0.811v12.298c0 0.278 0.091 0.576 0.315 0.811 0.227 0.237 0.53 0.345 0.825 0.345h8.498c0.229 0 0.409-0.084 0.512-0.144 0.114-0.066 0.21-0.147 0.287-0.228s0.153-0.179 0.213-0.293c0.026-0.049 0.056-0.113 0.080-0.189h0.813c0.631 0 0.989-0.445 1.13-0.739l0.078-0.164v-0.534c0.345 0.010 0.681 0.018 1.011 0.026v0l0.084 0.002c0.74 0.018 1.447 0.035 2.152 0.070l0.015 0.001zM10.778 18.357h0.834c0.009 0 0.017 0 0.025 0.001-0.009-0.001-0.017-0.001-0.026-0.001h-0.833zM10.778 29.092h0.494v-0.077h-0.001v0.077h-0.493zM9.432 17.575h-8.291c-0.204 0-0.34 0.142-0.34 0.355v12.298c0 0.205 0.125 0.344 0.316 0.355-0.191-0.010-0.317-0.15-0.317-0.355v-12.298c0-0.213 0.136-0.355 0.34-0.355h8.292zM8.605 29.874v0zM14.047 27.248c-0.419-0.011-0.851-0.022-1.296-0.029v-6.31c0.693-0.045 1.206-0.122 1.625-0.271 0.617-0.219 0.989-0.576 1.406-1.013l0.019-0.020 0.017-0.021c0.301-0.377 0.731-0.833 1.634-1.439l0.021-0.015c1.685-1.24 3.3-1.722 5.583-2.403l0.213-0.063c0.734-0.209 1.594-0.485 2.446-0.759-0.006 0.11-0.025 0.266-0.072 0.48l-0.006 0.030c-0.064 0.38-0.327 0.74-0.862 1.138-0.511 0.38-1.179 0.728-1.957 1.135v0l-0.114 0.060c-0.492 0.221-0.916 0.443-1.406 0.736l-0.011 0.007c-1.128 0.707-1.542 1.544-1.432 2.29 0.109 1.043 0.99 1.809 2.221 2.264 1.262 0.479 3.010 0.491 4.553 0.238 0.782-0.128 1.539-0.328 2.188-0.589 0.636-0.256 1.22-0.592 1.601-1.021 0.408-0.459 0.716-0.827 0.98-1.142 0.527-0.629 0.877-1.048 1.497-1.565 0.101-0.084 0.193-0.162 0.278-0.233v0c0.746-0.627 0.946-0.795 1.471-0.841 0.393-0.034 0.651-0.028 0.807 0.001-0.019 0.072-0.054 0.17-0.114 0.295-0.15 0.313-0.405 0.703-0.724 1.127-0.633 0.842-1.446 1.728-1.951 2.256l-0.012 0.013c-2.794 3.095-5.264 4.549-7.832 5.225-2.56 0.673-5.257 0.589-8.605 0.483l-0.164-0.006h-0.019c-0.614 0-1.245-0.016-1.909-0.033l-0.072-0.002zM1.481 25.010v-6.795h0.001l-0.001 6.795zM2.28 29.074v-10.059h6.219v10.059h-6.219z"></path>
</svg>
