<!-- Generated by IcoMoon.io -->
<svg version="1.1" xmlns="http://www.w3.org/2000/svg" width="30" height="32" viewBox="0 0 30 32">
<title>energy</title>
<path d="M18.278 16.996c-0.175-1.575-0.331-3.034-0.476-4.388v0-0.003c-0.051-0.481-0.101-0.948-0.15-1.403h-5.371c-0.060 0.477-0.125 0.969-0.194 1.479-0.089 1.040-0.208 2.117-0.336 3.273v0 0.002c-0.038 0.339-0.076 0.686-0.114 1.040h6.643zM10.431 19.020h-6.796c-0.152 0-0.3-0.011-0.444-0.033-0.011 0.063-0.014 0.117-0.012 0.162 0.002 0.041 0.008 0.068 0.013 0.085 0.003 0.008 0.005 0.013 0.006 0.017l0.002 0.003 0.001 0.001c0.039 0.053 0.089 0.097 0.153 0.13s0.153 0.059 0.281 0.059h22.716c0.171 0 0.262-0.025 0.308-0.046 0.034-0.015 0.058-0.034 0.087-0.082l0.018-0.031 0.021-0.029c0.038-0.052 0.075-0.155 0.027-0.295-0.196 0.040-0.397 0.060-0.595 0.060h-6.753c-0.020 0-0.037 0-0.050 0h-8.983zM28.498 15.531c0.214 0.724 0.191 1.485-0.108 2.154 0.163 0.145 0.253 0.328 0.302 0.478 0.258 0.789 0.181 1.607-0.189 2.265l-0.017 0.031-0.020 0.029c-0.486 0.693-1.321 1.048-2.114 1.048h-7.713v7.903h2.5c0.264 0 0.538 0.093 0.746 0.305 0.207 0.21 0.294 0.482 0.294 0.741 0 0.348-0.173 0.613-0.354 0.774-0.167 0.149-0.411 0.272-0.686 0.272h-12.294c-0.264 0-0.538-0.093-0.746-0.305-0.207-0.21-0.294-0.482-0.294-0.741s0.088-0.531 0.294-0.741c0.208-0.212 0.481-0.305 0.746-0.305h2.368v-7.903h-7.578c-0.874 0-1.635-0.365-2.114-1.048-0.484-0.689-0.563-1.564-0.203-2.388l0.006-0.015 0.007-0.014c0.035-0.070 0.077-0.136 0.125-0.196-0.433-0.689-0.464-1.563-0.24-2.395l0.005-0.019 0.006-0.018c0.435-1.329 0.854-2.572 1.246-3.736l0.077-0.227c0.364-1.079 0.704-2.089 1.016-3.039l0.001-0.004 1.205-3.611c0.267-0.771 0.503-1.504 0.731-2.217v0c0.112-0.349 0.222-0.693 0.334-1.034 0.173-0.527 0.58-0.904 1.008-1.139 0.434-0.238 0.953-0.367 1.467-0.367h3.7c0.122-0.045 0.25-0.068 0.375-0.068h5.211c0.129 0 0.249 0.027 0.355 0.068h3.453c0.514 0 1.032 0.129 1.467 0.367 0.428 0.235 0.835 0.611 1.008 1.139l0.004 0.010c0.252 0.813 0.531 1.681 0.838 2.623 0.102 0.089 0.19 0.2 0.257 0.335l0.018 0.036 0.014 0.038c0.269 0.754 0.538 1.573 0.803 2.382 0.225 0.597 0.425 1.238 0.628 1.887v0c0.102 0.327 0.205 0.656 0.312 0.983l0.035 0.107v0.118c0 0.036 0 0.136-0.017 0.245l-0.002 0.010c0.189 0.567 0.385 1.155 0.588 1.765v0.001c0.354 1.064 0.729 2.194 1.132 3.391l0.008 0.025zM13.293 21.535v7.902h3.265v-7.902h-3.265zM9.499 16.996c0.172-1.655 0.344-3.205 0.516-4.607 0.041-0.407 0.083-0.802 0.124-1.187h-5.246l-0.414 1.227c-0.391 1.16-0.806 2.393-1.237 3.71-0.106 0.387-0.045 0.577 0.013 0.651l0.014 0.017c0.039 0.052 0.089 0.097 0.152 0.13s0.153 0.059 0.281 0.059h5.798zM12.519 9.178h4.912c-0.067-0.599-0.133-1.174-0.199-1.726l-0.177-1.485h-4.191l-0.176 1.473c-0.048 0.561-0.104 1.138-0.169 1.738zM10.757 5.967h-4.064c-0.177 0.549-0.382 1.123-0.582 1.684-0.136 0.484-0.277 0.913-0.487 1.411l-0.045 0.116h4.788c0.083-0.707 0.167-1.382 0.25-2.032l0.14-1.179zM13.082 3.943h3.753c-0.066-0.628-0.132-1.223-0.198-1.784h-3.358c-0.066 0.561-0.132 1.155-0.198 1.784zM19.227 5.967l0.141 1.183c0.075 0.644 0.154 1.319 0.236 2.028h4.785c-0.17-0.53-0.339-1.031-0.508-1.504-0.119-0.334-0.226-0.669-0.327-0.985l-0.048-0.151c-0.063-0.198-0.125-0.388-0.188-0.572h-4.091zM19.837 11.202c0.198 1.734 0.413 3.654 0.644 5.794h5.803c0.125 0 0.226-0.022 0.294-0.052 0.063-0.028 0.088-0.056 0.1-0.077l0.024-0.041 0.029-0.037c0.058-0.074 0.119-0.263 0.013-0.649-0.405-1.204-0.779-2.328-1.13-3.385v-0.001c-0.178-0.534-0.35-1.052-0.517-1.553h-5.26zM18.978 3.943h3.709c-0.186-0.576-0.361-1.126-0.525-1.653-0.014-0.008-0.031-0.017-0.053-0.028-0.12-0.056-0.301-0.103-0.502-0.103h-2.833c0.062 0.564 0.128 1.159 0.204 1.784zM11.199 2.159h-2.82c-0.197 0-0.349 0.045-0.447 0.096-0.063 0.033-0.090 0.062-0.099 0.072-0.102 0.311-0.205 0.632-0.31 0.962v0c-0.069 0.214-0.139 0.432-0.21 0.653h3.669c0.063-0.567 0.132-1.112 0.198-1.63v0l0.020-0.154z"></path>
</svg>
