<!-- Generated by IcoMoon.io -->
<svg version="1.1" xmlns="http://www.w3.org/2000/svg" width="32" height="32" viewBox="0 0 32 32">
<title>fm</title>
<path d="M6.273 11.7c-3.464 0-6.273 2.808-6.273 6.273s5.513 10.146 5.513 10.146c0.185 0.231 0.464 0.365 0.76 0.365s0.574-0.134 0.759-0.364c0.116-0.144 1.481-1.855 2.819-3.921 0.669-1.033 1.336-2.163 1.839-3.237 0.496-1.060 0.857-2.118 0.857-2.99 0-3.464-2.808-6.273-6.273-6.273zM1.949 17.973c0.003-2.387 1.937-4.322 4.324-4.324 2.387 0.003 4.322 1.938 4.324 4.325 0 0.421-0.166 1.018-0.479 1.748-0.308 0.719-0.74 1.521-1.228 2.335-0.843 1.405-1.838 2.82-2.617 3.86-0.779-1.039-1.774-2.454-2.617-3.859-0.488-0.814-0.92-1.616-1.228-2.335-0.313-0.73-0.479-1.328-0.479-1.749zM8.393 17.443c0-1.17-0.949-2.119-2.119-2.119s-2.119 0.949-2.119 2.119c0 1.17 0.949 2.119 2.119 2.119s2.119-0.949 2.119-2.119zM5.214 17.443c0-0.585 0.474-1.060 1.060-1.060s1.060 0.474 1.060 1.060c0 0.585-0.474 1.060-1.060 1.060s-1.060-0.474-1.060-1.060zM24.025 0c-2.537 0-4.594 2.057-4.594 4.594 0 0.626 0.243 1.347 0.578 2.056 0.34 0.718 0.793 1.461 1.254 2.142 0.921 1.362 1.89 2.504 2.091 2.737v0c0.168 0.196 0.413 0.308 0.671 0.308s0.503-0.112 0.671-0.308c0.201-0.232 1.17-1.375 2.091-2.738 0.461-0.681 0.914-1.425 1.254-2.142 0.336-0.709 0.579-1.43 0.579-2.056 0-2.537-2.057-4.594-4.594-4.594zM21.201 4.595c0.002-1.559 1.265-2.822 2.823-2.824 1.559 0.002 2.822 1.265 2.823 2.824 0 0.26-0.102 0.63-0.304 1.087-0.198 0.449-0.478 0.949-0.798 1.46-0.542 0.865-1.189 1.74-1.722 2.415-0.533-0.675-1.18-1.55-1.722-2.414-0.32-0.51-0.599-1.011-0.797-1.46-0.202-0.457-0.304-0.827-0.304-1.088zM25.611 4.064c0-0.878-0.712-1.59-1.59-1.59s-1.59 0.712-1.59 1.59c0 0.878 0.712 1.59 1.59 1.59s1.59-0.712 1.59-1.59zM23.492 4.064c0-0.293 0.237-0.53 0.53-0.53s0.53 0.237 0.53 0.53c0 0.293-0.237 0.53-0.53 0.53s-0.53-0.237-0.53-0.53zM18.592 14.794h1.071c0.293 0 0.53-0.237 0.53-0.53s-0.237-0.53-0.53-0.53h-1.080c-0.14 0-0.274 0.056-0.373 0.156s-0.154 0.234-0.153 0.374c0.002 0.293 0.241 0.53 0.534 0.53zM24.533 14.264c0 0.293 0.237 0.53 0.53 0.53h1.079c0.293 0 0.53-0.237 0.53-0.53s-0.237-0.53-0.53-0.53h-1.079c-0.292 0-0.53 0.237-0.53 0.53zM8.109 29.1h-1.080c-0.293 0-0.53 0.237-0.53 0.53s0.237 0.53 0.53 0.53h1.080c0.293 0 0.53-0.237 0.53-0.53s-0.237-0.53-0.53-0.53zM17.035 13.533c0.037 0 0.074-0.004 0.11-0.012 0.286-0.060 0.469-0.341 0.41-0.627-0.015-0.072-0.023-0.146-0.023-0.22 0-0.168 0.039-0.333 0.115-0.482 0.133-0.261 0.029-0.58-0.232-0.713s-0.58-0.029-0.712 0.232c-0.22 0.431-0.285 0.925-0.185 1.399 0.051 0.245 0.267 0.422 0.518 0.422zM21.824 14.794h1.080c0.293 0 0.53-0.237 0.53-0.53s-0.237-0.53-0.53-0.53h-1.080c-0.293 0-0.53 0.237-0.53 0.53s0.237 0.53 0.53 0.53zM19.002 11.615h1.080c0.293 0 0.53-0.237 0.53-0.53s-0.237-0.53-0.53-0.53h-1.080c-0.293 0-0.53 0.237-0.53 0.53s0.237 0.53 0.53 0.53zM13.766 20.822c0.042 0.011 0.085 0.016 0.129 0.016 0.243-0.001 0.455-0.166 0.514-0.402 0.069-0.273 0.198-0.526 0.378-0.742 0.127-0.144 0.166-0.346 0.102-0.527s-0.222-0.314-0.411-0.346c-0.189-0.032-0.382 0.041-0.502 0.191-0.284 0.339-0.487 0.737-0.595 1.166-0.034 0.136-0.013 0.281 0.059 0.401s0.19 0.208 0.326 0.242zM24.235 29.078c-0.114 0.015-0.229 0.022-0.343 0.022h-0.667c-0.293 0-0.53 0.237-0.53 0.53s0.237 0.53 0.53 0.53h0.667c0.159 0 0.319-0.011 0.477-0.031 0.29-0.038 0.495-0.303 0.458-0.593s-0.303-0.495-0.593-0.458h0.002zM24.972 22.9c-0.351-0.106-0.715-0.16-1.081-0.159h-0.139c-0.293 0-0.53 0.237-0.53 0.53s0.237 0.53 0.53 0.53h0.139c0.262 0 0.522 0.039 0.773 0.114 0.050 0.015 0.102 0.023 0.154 0.023 0.263 0 0.486-0.192 0.525-0.452s-0.119-0.509-0.37-0.585v-0.002zM23.843 19.033c0.293 0 0.53-0.237 0.53-0.53s-0.237-0.53-0.53-0.53h-1.079c-0.293 0-0.53 0.237-0.53 0.53s0.237 0.53 0.53 0.53h1.079zM27.007 27.271c-0.267-0.12-0.58-0.002-0.7 0.265-0.124 0.274-0.293 0.525-0.501 0.742-0.136 0.136-0.188 0.335-0.135 0.519s0.201 0.327 0.388 0.371c0.187 0.044 0.383-0.016 0.513-0.158 0.291-0.304 0.529-0.655 0.702-1.039 0.119-0.267 0-0.58-0.266-0.7zM29.783 16.476c-0.135-0.040-0.28-0.025-0.404 0.043s-0.215 0.181-0.255 0.316c-0.078 0.26-0.22 0.496-0.414 0.686-0.209 0.205-0.213 0.541-0.008 0.75s0.54 0.213 0.75 0.008c0.323-0.316 0.56-0.71 0.689-1.143 0.040-0.135 0.025-0.28-0.042-0.404s-0.181-0.215-0.316-0.255zM29.178 15.499c0.209 0 0.399-0.123 0.484-0.314s0.050-0.414-0.089-0.57c-0.303-0.336-0.685-0.59-1.113-0.738-0.277-0.095-0.578 0.052-0.674 0.329s0.052 0.578 0.329 0.673c0.257 0.088 0.486 0.241 0.667 0.443 0.101 0.112 0.244 0.176 0.395 0.176zM21.594 22.741h-1.079c-0.293 0-0.53 0.237-0.53 0.53s0.237 0.53 0.53 0.53h1.079c0.293 0 0.53-0.237 0.53-0.53s-0.237-0.53-0.53-0.53zM27.079 17.973h-1.080c-0.293 0-0.53 0.237-0.53 0.53s0.237 0.53 0.53 0.53h1.080c0.293 0 0.53-0.237 0.53-0.53s-0.237-0.53-0.53-0.53zM11.347 29.1h-1.079c-0.293 0-0.53 0.237-0.53 0.53s0.237 0.53 0.53 0.53h1.079c0.293 0 0.53-0.237 0.53-0.53s-0.237-0.53-0.53-0.53zM26.96 24.368c-0.165-0.242-0.495-0.304-0.738-0.139s-0.304 0.495-0.139 0.738c0.169 0.248 0.295 0.523 0.371 0.813 0.041 0.19 0.183 0.341 0.37 0.396s0.387 0.002 0.524-0.136c0.137-0.138 0.187-0.339 0.131-0.525-0.106-0.409-0.282-0.797-0.52-1.147zM15.388 22.551c-0.252-0.125-0.472-0.305-0.645-0.527-0.18-0.231-0.512-0.273-0.744-0.093s-0.273 0.512-0.094 0.743c0.271 0.348 0.618 0.631 1.013 0.827 0.261 0.122 0.572 0.013 0.699-0.246s0.025-0.571-0.23-0.704zM14.586 29.1h-1.081c-0.293 0-0.53 0.237-0.53 0.53s0.237 0.53 0.53 0.53h1.081c0.293 0 0.53-0.237 0.53-0.53s-0.237-0.53-0.53-0.53zM21.066 29.1h-1.079c-0.293 0-0.53 0.237-0.53 0.53s0.237 0.53 0.53 0.53h1.079c0.293 0 0.53-0.237 0.53-0.53s-0.237-0.53-0.53-0.53zM17.364 19.033c0.293 0 0.53-0.237 0.53-0.53s-0.237-0.53-0.53-0.53h-1.079c-0.293 0-0.53 0.237-0.53 0.53s0.237 0.53 0.53 0.53h1.079zM20.606 19.033c0.293 0 0.53-0.237 0.53-0.53s-0.237-0.53-0.53-0.53h-1.082c-0.293 0-0.53 0.237-0.53 0.53s0.237 0.53 0.53 0.53h1.082zM18.353 22.741h-1.080c-0.293 0-0.53 0.237-0.53 0.53s0.237 0.53 0.53 0.53h1.080c0.293 0 0.53-0.237 0.53-0.53s-0.237-0.53-0.53-0.53zM17.825 29.1h-1.080c-0.293 0-0.53 0.237-0.53 0.53s0.237 0.53 0.53 0.53h1.080c0.293 0 0.53-0.237 0.53-0.53s-0.237-0.53-0.53-0.53z"></path>
</svg>
