<!-- Generated by IcoMoon.io -->
<svg version="1.1" xmlns="http://www.w3.org/2000/svg" width="32" height="32" viewBox="0 0 32 32">
<title>gateway</title>
<path d="M12.169 7.221c0-0.738 0.284-1.463 0.836-1.96l0.013-0.012c0.384-0.384 0.384-0.976 0-1.361-0.383-0.383-0.972-0.384-1.356-0.005-0.957 0.891-1.43 2.119-1.43 3.401 0 1.292 0.48 2.391 1.43 3.274 0.082 0.081 0.177 0.155 0.294 0.207 0.121 0.054 0.248 0.076 0.382 0.076s0.261-0.023 0.382-0.076c0.119-0.053 0.216-0.129 0.299-0.212 0.384-0.384 0.384-0.977 0-1.361l-0.013-0.012c-0.552-0.497-0.836-1.222-0.836-1.96zM10.569 7.284c0-1.2 0.442-2.337 1.326-3.158 0.088-0.088 0.191-0.145 0.299-0.172-0.108 0.027-0.211 0.084-0.299 0.172-0.884 0.821-1.326 1.958-1.326 3.158s0.442 2.211 1.326 3.032c0.126 0.126 0.253 0.189 0.442 0.189 0.058 0 0.109-0.006 0.157-0.018-0.048 0.012-0.1 0.018-0.158 0.018-0.189 0-0.316-0.063-0.442-0.189-0.884-0.821-1.326-1.832-1.326-3.032zM21.635 0.288c0.383-0.383 0.974-0.384 1.358-0.002 1.896 1.832 2.943 4.319 2.943 6.935s-1.047 5.103-2.943 6.935c-0.083 0.082-0.178 0.157-0.297 0.21-0.121 0.054-0.247 0.076-0.381 0.076-0.21 0-0.487-0.095-0.68-0.288-0.384-0.384-0.384-0.976 0-1.361 1.52-1.52 2.364-3.457 2.364-5.572 0-2.12-0.848-4.116-2.36-5.568l-0.005-0.005c-0.384-0.384-0.384-0.976 0-1.361zM22.172 0.354c-0.108 0.027-0.211 0.084-0.299 0.172-0.253 0.253-0.253 0.632 0 0.884 1.579 1.516 2.463 3.6 2.463 5.811s-0.884 4.232-2.463 5.811c-0.253 0.253-0.253 0.632 0 0.884 0.126 0.126 0.316 0.189 0.442 0.189 0.058 0 0.11-0.006 0.158-0.018-0.048 0.012-0.1 0.018-0.157 0.018-0.126 0-0.316-0.063-0.442-0.189-0.253-0.253-0.253-0.632 0-0.884 1.579-1.579 2.463-3.6 2.463-5.811s-0.884-4.295-2.463-5.811c-0.253-0.253-0.253-0.632 0-0.884 0.088-0.088 0.191-0.145 0.298-0.172zM18.211 4c0.088-0.088 0.191-0.145 0.299-0.172-0.108 0.027-0.211 0.084-0.298 0.172-0.253 0.253-0.253 0.632 0 0.884 0.632 0.568 0.947 1.389 0.947 2.211s-0.316 1.642-0.947 2.211c-0.253 0.379-0.253 0.758 0 1.011 0.126 0.126 0.316 0.189 0.442 0.189 0.058 0 0.109-0.006 0.157-0.018-0.048 0.012-0.1 0.018-0.157 0.018-0.126 0-0.316-0.063-0.442-0.189-0.253-0.253-0.253-0.632 0-1.011 0.632-0.568 0.947-1.389 0.947-2.211s-0.316-1.642-0.947-2.211c-0.253-0.253-0.253-0.632 0-0.884zM20.758 7.158c0-1.291-0.479-2.45-1.425-3.396-0.384-0.384-0.976-0.384-1.361 0s-0.384 0.976 0 1.361l0.013 0.012c0.552 0.497 0.836 1.222 0.836 1.96s-0.284 1.463-0.836 1.96l-0.032 0.028-0.023 0.035c-0.308 0.462-0.362 1.031 0.042 1.436 0.194 0.194 0.471 0.288 0.68 0.288 0.134 0 0.261-0.023 0.381-0.076 0.117-0.052 0.212-0.126 0.294-0.207 0.957-0.891 1.43-2.119 1.43-3.401zM8.674 14.442c-0.209 0-0.485-0.094-0.678-0.286-1.896-1.832-2.943-4.319-2.943-6.935s1.047-5.103 2.943-6.935c0.384-0.382 0.975-0.381 1.358 0.002s0.384 0.976 0 1.361c-1.52 1.52-2.364 3.457-2.364 5.572s0.845 4.053 2.364 5.572c0.384 0.384 0.384 0.976 0 1.361-0.083 0.083-0.179 0.159-0.299 0.212-0.121 0.054-0.248 0.076-0.382 0.076zM8.53 0.354c-0.108 0.027-0.211 0.084-0.299 0.172-1.832 1.768-2.842 4.168-2.842 6.695s1.011 4.926 2.842 6.695c0.126 0.126 0.316 0.189 0.442 0.189 0.058 0 0.109-0.006 0.157-0.018-0.048 0.012-0.1 0.018-0.158 0.018-0.126 0-0.316-0.063-0.442-0.189-1.832-1.768-2.842-4.168-2.842-6.695s1.011-4.926 2.842-6.695c0.088-0.088 0.191-0.145 0.299-0.172zM9.824 12.386c0.083 0.083 0.179 0.159 0.299 0.212 0.121 0.054 0.248 0.076 0.382 0.076s0.261-0.023 0.382-0.076c0.119-0.053 0.216-0.129 0.299-0.212 0.384-0.384 0.384-0.976 0-1.361-1.014-1.014-1.607-2.382-1.607-3.804s0.593-2.79 1.607-3.804c0.384-0.384 0.384-0.976 0-1.361s-0.976-0.384-1.361 0c-1.385 1.385-2.183 3.175-2.183 5.164 0 1.925 0.796 3.778 2.183 5.165zM2.232 28.463h0.295v0.295c0 1.26 0.972 2.232 2.232 2.232h1.263c1.26 0 2.232-0.972 2.232-2.232v-0.295h14.484v0.295c0 1.26 0.972 2.232 2.232 2.232h1.263c1.26 0 2.232-0.972 2.232-2.232v-0.295h0.295c1.26 0 2.232-0.972 2.232-2.232v-2.526c0-1.26-0.972-2.232-2.232-2.232h-10.507l-1.693-12.216c0.695-0.364 1.168-1.114 1.168-1.973 0-1.26-0.972-2.232-2.232-2.232s-2.232 0.972-2.232 2.232c0 0.881 0.493 1.568 1.17 1.958l-1.695 12.231h-10.507c-1.26 0-2.232 0.972-2.232 2.232v2.526c0 1.26 0.972 2.232 2.232 2.232zM29.124 28.093c-0.118 0.022-0.24 0.033-0.366 0.033v0c0.126 0 0.248-0.011 0.366-0.033zM26.732 30.59c-0.158 0.041-0.326 0.062-0.5 0.062h-1.263c-1.074 0-1.895-0.821-1.895-1.895v0c0 1.074 0.821 1.895 1.895 1.895h1.263c0.174 0 0.341-0.022 0.5-0.062zM6.375 30.622c-0.114 0.020-0.233 0.031-0.354 0.031h-1.263c-1.074 0-1.895-0.821-1.895-1.895v-0.632h-0.632c-1.074 0-1.895-0.821-1.895-1.895v-2.526c0-0.889 0.563-1.605 1.366-1.825-0.803 0.22-1.366 0.936-1.366 1.825v2.526c0 1.074 0.821 1.895 1.895 1.895h0.632v0.632c0 1.074 0.821 1.895 1.895 1.895h1.263c0.121 0 0.24-0.011 0.354-0.031zM13.032 21.811l1.768-12.758c-0.695-0.316-1.2-0.947-1.2-1.768 0-0.904 0.582-1.629 1.407-1.835-0.824 0.207-1.406 0.932-1.406 1.835 0 0.821 0.505 1.453 1.2 1.768l-1.768 12.758zM6.316 28.758c0 0.113-0.036 0.181-0.075 0.22s-0.107 0.075-0.22 0.075h-1.263c-0.113 0-0.181-0.036-0.22-0.075s-0.075-0.107-0.075-0.22v-0.295h1.853v0.295zM26.526 28.758c0 0.113-0.036 0.181-0.075 0.22s-0.107 0.075-0.22 0.075h-1.263c-0.113 0-0.181-0.036-0.22-0.075s-0.075-0.107-0.075-0.22v-0.295h1.853v0.295zM15.495 6.989c0.113 0 0.181 0.036 0.22 0.075s0.075 0.107 0.075 0.22c0 0.113-0.036 0.181-0.075 0.22s-0.107 0.075-0.22 0.075c-0.113 0-0.181-0.036-0.22-0.075s-0.075-0.107-0.075-0.22c0-0.113 0.036-0.181 0.075-0.22s0.107-0.075 0.22-0.075zM16.695 21.811v0l-1.2-8.589 1.2 8.588zM14.742 21.474l0.762-5.754 0.804 5.754h-1.565zM1.937 23.705c0-0.113 0.036-0.181 0.075-0.22s0.107-0.075 0.22-0.075h26.526c0.113 0 0.181 0.036 0.22 0.075s0.075 0.107 0.075 0.22v2.526c0 0.113-0.036 0.181-0.075 0.22s-0.107 0.075-0.22 0.075h-26.526c-0.113 0-0.181-0.036-0.22-0.075s-0.075-0.107-0.075-0.22v-2.526zM21.411 7.221c0-1.422-0.593-2.79-1.607-3.804-0.384-0.384-0.384-0.976 0-1.361s0.976-0.384 1.361 0c1.386 1.386 2.183 3.239 2.183 5.164 0 1.99-0.798 3.779-2.183 5.165-0.083 0.083-0.179 0.159-0.299 0.212-0.121 0.054-0.247 0.076-0.381 0.076-0.21 0-0.487-0.095-0.68-0.288-0.384-0.384-0.384-0.976 0-1.361 1.014-1.014 1.607-2.382 1.607-3.804zM3.495 25.937h1.263c0.266 0 0.514-0.090 0.696-0.272s0.272-0.43 0.272-0.696c0-0.266-0.090-0.514-0.272-0.696s-0.43-0.272-0.696-0.272h-1.263c-0.266 0-0.514 0.090-0.696 0.272s-0.272 0.43-0.272 0.696c0 0.266 0.090 0.514 0.272 0.696s0.43 0.272 0.696 0.272zM10.505 12.337c0.058 0 0.11-0.006 0.158-0.018-0.048 0.012-0.1 0.018-0.157 0.018-0.189 0-0.316-0.063-0.442-0.189-1.326-1.326-2.084-3.095-2.084-4.926 0-1.895 0.758-3.6 2.084-4.926 0.088-0.088 0.191-0.145 0.299-0.172-0.108 0.027-0.211 0.084-0.299 0.172-1.326 1.326-2.084 3.032-2.084 4.926 0 1.832 0.758 3.6 2.084 4.926 0.126 0.126 0.253 0.189 0.442 0.189zM6.253 29.353c0.246-0.082 0.399-0.301 0.399-0.596v0c0 0.295-0.153 0.513-0.399 0.596zM26.463 29.354c0.247-0.082 0.401-0.301 0.401-0.596v0c0 0.295-0.153 0.514-0.401 0.596zM16.126 7.284c0 0.312-0.172 0.539-0.444 0.609 0.273-0.070 0.444-0.296 0.444-0.609 0-0.379-0.253-0.632-0.632-0.632-0.064 0-0.124 0.007-0.18 0.021 0.056-0.014 0.116-0.021 0.18-0.021 0.379 0 0.632 0.253 0.632 0.632zM2.052 23.094c0.056-0.014 0.116-0.021 0.18-0.021h26.526c0.379 0 0.632 0.253 0.632 0.632v2.526c0 0.297-0.155 0.516-0.405 0.597 0.249-0.081 0.404-0.3 0.404-0.597v-2.526c0-0.379-0.253-0.632-0.632-0.632h-26.526c-0.064 0-0.124 0.007-0.179 0.021zM21.748 7.221c0 1.516-0.632 2.968-1.705 4.042-0.253 0.253-0.253 0.632 0 0.884 0.126 0.126 0.316 0.189 0.442 0.189 0.058 0 0.11-0.006 0.157-0.018-0.048 0.012-0.1 0.018-0.157 0.018-0.126 0-0.316-0.063-0.442-0.189-0.253-0.253-0.253-0.632 0-0.884 1.074-1.074 1.705-2.526 1.705-4.042s-0.632-2.968-1.705-4.042c-0.253-0.253-0.253-0.632 0-0.884 0.088-0.088 0.191-0.145 0.298-0.172-0.108 0.027-0.211 0.084-0.299 0.172-0.253 0.253-0.253 0.632 0 0.884 1.074 1.074 1.705 2.526 1.705 4.042zM4.758 25.6h-1.263c-0.379 0-0.632-0.253-0.632-0.632 0-0.315 0.175-0.543 0.452-0.611-0.277 0.068-0.452 0.296-0.452 0.611 0 0.379 0.253 0.632 0.632 0.632h1.263c0.056 0 0.11-0.006 0.16-0.016-0.050 0.011-0.104 0.016-0.16 0.016z"></path>
</svg>
