<!-- Generated by IcoMoon.io -->
<svg version="1.1" xmlns="http://www.w3.org/2000/svg" width="38" height="32" viewBox="0 0 38 32">
<title>healtcare</title>
<path d="M4.72 3.043c1.967-1.938 4.597-3.043 7.306-3.043 2.682 0 5.279 1.002 7.533 2.855 2.301-1.903 4.851-2.855 7.536-2.855 2.772 0 5.341 1.107 7.306 3.043l0.005 0.005c1.769 1.775 2.98 4.242 3.013 6.974 0.033 2.749-1.126 5.676-3.936 8.352l-12.997 12.683c-0.251 0.247-0.569 0.41-0.987 0.41s-0.734-0.162-0.985-0.408l-12.999-12.685c-2.496-2.397-3.829-5.229-3.829-8.236 0-2.626 1.132-5.156 3.024-7.084l0.010-0.010zM20.456 16.621l1.759-3.605c0.081-0.244 0.231-0.466 0.456-0.627 0.247-0.177 0.526-0.239 0.777-0.239 0.548 0 0.963 0.286 1.209 0.651l0.010 0.014 1.039 1.609h7.634c2.215-3.61 1.253-7.209-0.915-9.344l-0.006-0.006c-1.324-1.331-3.181-2.223-5.236-2.263-2.040-0.040-4.345 0.757-6.579 2.929-0.555 0.544-1.418 0.543-1.971-0.002-2.175-2.143-4.409-2.942-6.426-2.942-2.145 0-4.013 0.864-5.393 2.224-1.426 1.405-2.195 3.237-2.253 5.187 0.003 1.365 0.461 2.809 1.327 4.157h9.071l2.173-5.104 0.012-0.024c0.232-0.458 0.781-0.931 1.536-0.782l0.036 0.008c0.411 0.101 1.070 0.475 1.094 1.271l0.643 6.888zM8.334 17.162l11.287 11.011 11.287-11.011h-5.94c-0.529 0-0.93-0.328-1.149-0.651l-0.004-0.007-0.144-0.218-2.972 6.004c-0.109 0.215-0.27 0.424-0.502 0.576-0.236 0.155-0.499 0.221-0.758 0.221h-0.219l-0.094-0.023c-0.289-0.071-0.542-0.235-0.727-0.432-0.173-0.185-0.354-0.475-0.367-0.841l-0.519-6.215-0.296 0.696c-0.212 0.678-0.876 0.89-1.302 0.89h-7.58z"></path>
</svg>
