<!-- Generated by IcoMoon.io -->
<svg version="1.1" xmlns="http://www.w3.org/2000/svg" width="28" height="32" viewBox="0 0 28 32">
<title>industrial</title>
<path d="M22.024 0c-1.626 0-2.928 1.040-3.424 2.418l-7.649-1.023c-0.902-0.827-2.127-1.332-3.421-1.332-2.712 0-4.894 2.059-4.894 4.675 0 1.41 0.646 2.702 1.695 3.517l-1.607 13.281c-0.801 0.324-1.406 1.067-1.406 1.963v1.811c-0.793 0.333-1.318 1.079-1.318 1.953v2.51c0 0.257 0.091 0.49 0.269 0.659 0.176 0.168 0.415 0.25 0.672 0.25h13.176c0.258 0 0.496-0.083 0.672-0.25 0.177-0.169 0.269-0.403 0.269-0.659v-2.51c0-0.928-0.521-1.681-1.318-2.016v-1.811c0-0.878-0.588-1.689-1.408-1.975l-1.608-13.291 0.064-0.061c0 0 0.001-0.001 0.001-0.001l0.033-0.031c0.004-0.004-0.003 0.003 0.002-0.001l0.127-0.121 7.638-1.022c0.451 1.389 1.821 2.417 3.433 2.417h2.635c1.263 0 2.259-0.929 2.259-2.165v-1.255c0-0.257-0.091-0.49-0.269-0.659-0.176-0.168-0.415-0.25-0.672-0.25h-3.012v-0.69h3.012c0.258 0 0.496-0.083 0.672-0.25 0.177-0.169 0.269-0.403 0.269-0.659v-1.255c0-1.235-0.996-2.165-2.259-2.165h-2.635zM4.518 4.612c0-1.588 1.31-2.855 3.012-2.855 0.963 0 1.81 0.459 2.355 1.094l0.009 0.011 0.016 0.016c0.004 0.004 0.008 0.010 0.014 0.018 0.012 0.016 0.025 0.035 0.043 0.059l0.005 0.008c0.028 0.041 0.076 0.109 0.13 0.16l0.002 0.002 0.002 0.003c0.003 0.003 0.006 0.007 0.010 0.012 0.008 0.011 0.015 0.023 0.022 0.036 0.004 0.007 0.007 0.014 0.009 0.018v0.097l0.071 0.067 0.011 0.030 0.001 0.004c0.007 0.021 0.020 0.058 0.037 0.093 0.013 0.026 0.030 0.058 0.055 0.091 0.009 0.022 0.016 0.047 0.028 0.084l0.006 0.022 0.002 0.006c0.010 0.034 0.030 0.1 0.071 0.166 0.004 0.011 0.007 0.022 0.011 0.031 0.012 0.030 0.027 0.058 0.034 0.072v0l0.002 0.004v0.010l0.016 0.045c0.048 0.136 0.050 0.277 0.050 0.471s-0.002 0.335-0.050 0.471l-0.016 0.045-0.001 0.011-0.001 0.003c-0.007 0.014-0.022 0.042-0.034 0.072-0.013 0.034-0.030 0.086-0.030 0.151 0 0.015-0.004 0.038-0.016 0.065-0.006 0.012-0.012 0.023-0.018 0.032-0.003 0.004-0.007 0.010-0.007 0.010l-0.003 0.003c-0.050 0.048-0.080 0.1-0.099 0.14-0.017 0.036-0.030 0.072-0.037 0.093v0l-0.001 0.004-0.012 0.032c-0.040 0.043-0.065 0.088-0.082 0.122-0.017 0.036-0.030 0.072-0.037 0.093l-0.001 0.004-0.011 0.032c-0.047 0.049-0.087 0.107-0.113 0.143l-0.005 0.008c-0.017 0.025-0.030 0.043-0.043 0.059-0.006 0.008-0.011 0.013-0.014 0.018l-0.005 0.006-0.015 0.014-0.012 0.016c-0.181 0.23-0.425 0.462-0.667 0.635l-0.016 0.012-0.014 0.014c-0.034 0.032-0.085 0.064-0.157 0.099-0.035 0.017-0.071 0.032-0.111 0.049l-0.008 0.003c-0.035 0.015-0.075 0.032-0.112 0.050l-0.041 0.019-0.015 0.015h-0.009c-0.019 0.001-0.042 0.001-0.077 0.001-0.054 0-0.103 0.012-0.131 0.019-0.030 0.008-0.061 0.018-0.084 0.025v0l-0.003 0.001c-0.026 0.008-0.044 0.014-0.058 0.017l-0.004 0.001c-0.103 0.002-0.182 0.027-0.23 0.043l-0.005 0.002c-0.049 0.016-0.061 0.018-0.079 0.018h-1.054c-0.018 0-0.030-0.003-0.079-0.018l-0.005-0.002c-0.048-0.015-0.127-0.041-0.23-0.043l-0.004-0.001c-0.014-0.004-0.031-0.009-0.058-0.017l-0.003-0.001c-0.023-0.007-0.054-0.017-0.084-0.025-0.023-0.006-0.060-0.015-0.102-0.018l-0.004-0.002-0.032-0.012c-0.044-0.017-0.107-0.038-0.188-0.046l-0.067-0.029c-0.039-0.017-0.076-0.032-0.111-0.049-0.072-0.034-0.123-0.066-0.157-0.099l-0.036-0.034-0.045-0.020c-0.743-0.327-1.281-1.159-1.281-2.126zM12.292 3.464c0-0.030-0.002-0.081-0.014-0.135l6.443 0.611v1.334l-6.497 0.691c0.001-0.011 0.002-0.023 0.002-0.035v-0.005l0.066-0.063v-0.088l0.011-0.026c0.023-0.055 0.055-0.142 0.055-0.258 0-0.031 0.001-0.036 0.002-0.044s0.007-0.030 0.031-0.076l0.032-0.062v-1.328c0-0.033 0-0.088-0.014-0.157-0.012-0.056-0.031-0.113-0.060-0.175-0.004-0.021-0.009-0.038-0.012-0.051-0.008-0.030-0.019-0.060-0.027-0.081v0l-0.001-0.003c-0.008-0.024-0.014-0.039-0.017-0.051zM4.62 21.271l1.498-12.184c0.018 0.004 0.038 0.008 0.059 0.010l0.012 0.005 0.003 0.001c0.015 0.007 0.043 0.020 0.073 0.031s0.075 0.024 0.129 0.026l0.004 0.001c0.014 0.004 0.031 0.009 0.058 0.017l0.003 0.001c0.023 0.007 0.054 0.017 0.084 0.025 0.028 0.007 0.077 0.019 0.131 0.019h0.034c0.284 0.063 0.564 0.063 0.81 0.063h0.026c0.246 0 0.525 0 0.81-0.063h0.034c0.054 0 0.103-0.012 0.131-0.019 0.030-0.008 0.061-0.018 0.084-0.025l0.003-0.001c0.026-0.008 0.044-0.014 0.058-0.017l0.003-0.001c0.058 0 0.166-0.002 0.278-0.066l1.497 12.176h-5.818zM3.2 23.435c0-0.12 0.040-0.2 0.094-0.25 0.054-0.052 0.145-0.095 0.283-0.095h7.906c0.137 0 0.228 0.043 0.283 0.095 0.053 0.051 0.094 0.131 0.094 0.25v1.6h-8.659v-1.6zM1.882 27.2c0-0.12 0.040-0.2 0.094-0.25 0.054-0.052 0.145-0.095 0.283-0.095h10.541c0.137 0 0.228 0.043 0.283 0.095 0.053 0.051 0.094 0.131 0.094 0.25v1.6h-11.294v-1.6zM24.66 1.475c0.395 0 0.659 0.251 0.659 0.627v0.627h-3.294c-0.395 0-0.659 0.251-0.659 0.627v2.51c0 0.376 0.264 0.627 0.659 0.627h3.294v0.627c0 0.376-0.264 0.627-0.659 0.627h-2.635c-1.12 0-1.976-0.816-1.976-1.882v-2.51c0-1.067 0.856-1.882 1.976-1.882h2.635z"></path>
</svg>
