<!-- Generated by IcoMoon.io -->
<svg version="1.1" xmlns="http://www.w3.org/2000/svg" width="26" height="32" viewBox="0 0 26 32">
<title>logistic</title>
<path d="M22.664 12.235c0-5.198-4.214-9.412-9.412-9.412s-9.412 4.214-9.412 9.412c0 1.126 0.418 2.792 1.288 4.83 0.846 1.982 2.023 4.092 3.303 6.030 1.284 1.943 2.619 3.635 3.749 4.805 0.421 0.436 0.781 0.766 1.072 1 0.29-0.234 0.651-0.564 1.072-1 1.13-1.17 2.465-2.862 3.749-4.805 1.28-1.938 2.457-4.048 3.303-6.030 0.87-2.038 1.288-3.704 1.288-4.83zM12.717 29.269c0 0.001 0.008-0.003 0.025-0.011-0.016 0.007-0.025 0.011-0.025 0.011zM13.764 29.258c0.017 0.009 0.025 0.012 0.025 0.011s-0.009-0.005-0.025-0.011zM25.488 12.235c0 6.757-9.412 19.765-12.235 19.765s-12.235-13.007-12.235-19.765c0-6.757 5.478-12.235 12.235-12.235s12.235 5.478 12.235 12.235zM15.135 12.235c0-1.040-0.843-1.882-1.882-1.882s-1.882 0.843-1.882 1.882c0 1.040 0.843 1.882 1.882 1.882s1.882-0.843 1.882-1.882zM17.959 12.235c0 2.599-2.107 4.706-4.706 4.706s-4.706-2.107-4.706-4.706c0-2.599 2.107-4.706 4.706-4.706s4.706 2.107 4.706 4.706z"></path>
</svg>
