<!-- Generated by IcoMoon.io -->
<svg version="1.1" xmlns="http://www.w3.org/2000/svg" width="43" height="32" viewBox="0 0 43 32">
<title>platform</title>
<path d="M21.028 13.771c1.001 0 1.986 0.385 2.66 1.134l0.017 0.017c0.263 0.263 0.639 0.391 0.923 0.391 0.182 0 0.354-0.031 0.518-0.104 0.162-0.072 0.293-0.175 0.405-0.287 0.521-0.521 0.521-1.325 0-1.847-1.192-1.193-2.849-1.934-4.523-1.934-1.746 0-3.325 0.646-4.53 1.94-0.508 0.514-0.513 1.298-0.015 1.818 0.235 0.293 0.59 0.413 0.913 0.413 0.335 0 0.691-0.126 0.955-0.391 0.695-0.695 1.696-1.152 2.677-1.152zM16.828 14.6c0.118 0.157 0.307 0.242 0.51 0.255-0.203-0.014-0.392-0.099-0.51-0.255-0.343-0.343-0.343-0.857 0-1.2 1.114-1.2 2.571-1.8 4.2-1.8 0.072 0 0.144 0.002 0.216 0.004-0.072-0.003-0.145-0.005-0.217-0.005-1.629 0-3.086 0.6-4.2 1.8-0.343 0.343-0.343 0.857 0 1.2zM21.445 13.334c0.97 0.094 1.908 0.516 2.583 1.266 0.16 0.159 0.393 0.245 0.563 0.256-0.17-0.011-0.403-0.097-0.562-0.256-0.675-0.75-1.613-1.172-2.583-1.266zM40.743 22.286h-0.4v-19.257c0-1.71-1.319-3.029-3.029-3.029h-32.571c-1.71 0-3.029 1.319-3.029 3.029v19.257h-0.4c-0.361 0-0.697 0.122-0.945 0.37s-0.37 0.584-0.37 0.945v3.429c0 2.653 2.090 4.743 4.743 4.743h32.571c2.653 0 4.743-2.090 4.743-4.743v-3.429c0-0.361-0.122-0.697-0.37-0.945s-0.584-0.37-0.945-0.37zM4.457 31.305c-2.262-0.143-4-1.973-4-4.277v-3.429c0-0.514 0.343-0.857 0.857-0.857h0.857v-19.714c0-1.457 1.114-2.571 2.571-2.571h32.571c0.060 0 0.119 0.002 0.177 0.006-0.059-0.004-0.118-0.006-0.178-0.006h-32.571c-1.457 0-2.571 1.114-2.571 2.571v19.714h-0.857c-0.514 0-0.857 0.343-0.857 0.857v3.429c0 2.304 1.738 4.134 4 4.277zM39.886 22.743h0.857c0.024 0 0.048 0.001 0.071 0.002-0.023-0.001-0.047-0.002-0.071-0.002h-0.857zM4.343 3.029c0-0.153 0.049-0.245 0.102-0.298s0.145-0.102 0.298-0.102h32.571c0.153 0 0.245 0.049 0.298 0.102s0.102 0.145 0.102 0.298v19.257h-12.4c-0.361 0-0.697 0.122-0.945 0.37s-0.37 0.584-0.37 0.945v2.114h-5.943v-2.114c0-0.361-0.122-0.697-0.37-0.945s-0.584-0.37-0.945-0.37h-12.4v-19.257zM37.38 2.173c0.478 0.028 0.792 0.363 0.792 0.855v19.714h-12.857c-0.514 0-0.857 0.343-0.857 0.857v0c0-0.514 0.343-0.857 0.857-0.857h12.857v-19.714c0-0.492-0.314-0.827-0.792-0.855zM16.743 22.743c0.022 0 0.044 0.001 0.066 0.002-0.021-0.001-0.043-0.002-0.065-0.002v0zM39.429 27.029c0 1.205-0.91 2.114-2.114 2.114h-32.571c-1.205 0-2.114-0.91-2.114-2.114v-2.114h12.8v2.114c0 0.361 0.122 0.697 0.37 0.945s0.584 0.37 0.945 0.37h8.571c0.361 0 0.697-0.122 0.945-0.37s0.37-0.584 0.37-0.945v-2.114h12.8v2.114zM4.566 29.595c0.058 0.004 0.118 0.006 0.177 0.006h32.571c1.457 0 2.571-1.114 2.571-2.571v0c0 1.457-1.114 2.571-2.571 2.571h-32.571c-0.060 0-0.119-0.002-0.178-0.006zM16.678 27.884c-0.478-0.028-0.792-0.363-0.792-0.855v0c0 0.492 0.314 0.827 0.792 0.855zM21.029 14.571c-1.71 0-3.029 1.319-3.029 3.029s1.319 3.029 3.029 3.029c1.71 0 3.029-1.319 3.029-3.029s-1.319-3.029-3.029-3.029zM21.029 18c-0.153 0-0.245-0.049-0.298-0.102s-0.102-0.145-0.102-0.298c0-0.153 0.049-0.245 0.102-0.298s0.145-0.102 0.298-0.102c0.153 0 0.245 0.049 0.298 0.102s0.102 0.145 0.102 0.298c0 0.153-0.049 0.245-0.102 0.298s-0.145 0.102-0.298 0.102zM26.192 12.438c-1.367-1.367-3.22-2.095-5.163-2.095s-3.796 0.728-5.162 2.095c-0.521 0.521-1.325 0.521-1.847 0s-0.521-1.325 0-1.847c1.889-1.889 4.407-2.877 7.009-2.877 2.69 0 5.121 0.989 7.009 2.877 0.521 0.521 0.521 1.325 0 1.847-0.113 0.113-0.243 0.215-0.405 0.287-0.164 0.073-0.336 0.104-0.518 0.104-0.285 0-0.661-0.128-0.923-0.391zM22.116 6.51c2.574 0.253 4.917 1.398 6.798 3.204 0.159 0.159 0.393 0.245 0.563 0.256-0.17-0.011-0.403-0.096-0.563-0.256-1.881-1.806-4.224-2.951-6.797-3.204zM12.487 9.97c-0.196-0.014-0.388-0.099-0.545-0.255-0.343-0.343-0.343-0.857 0-1.2 2.4-2.4 5.657-3.771 9.086-3.771 0.115 0 0.229 0.002 0.344 0.005-0.114-0.003-0.229-0.005-0.344-0.005-3.429 0-6.686 1.371-9.086 3.771-0.343 0.343-0.343 0.857 0 1.2 0.157 0.157 0.349 0.242 0.545 0.255zM28.594 10.041c0.263 0.26 0.636 0.387 0.92 0.387 0.182 0 0.354-0.031 0.518-0.104 0.162-0.072 0.293-0.175 0.405-0.287 0.521-0.521 0.521-1.325 0-1.847-2.485-2.485-5.858-3.905-9.409-3.905s-6.924 1.421-9.409 3.905c-0.521 0.521-0.521 1.325 0 1.847s1.325 0.521 1.847 0c2.056-2.056 4.682-3.123 7.562-3.123 2.871 0 5.502 1.146 7.566 3.127zM21.029 15.029c0.060 0 0.119 0.002 0.178 0.006-0.058-0.004-0.118-0.006-0.177-0.006-1.457 0-2.571 1.114-2.571 2.571 0 1.397 1.025 2.479 2.394 2.566-1.369-0.086-2.394-1.168-2.394-2.566 0-1.457 1.114-2.571 2.571-2.571zM20.963 18.455c0.021 0.001 0.043 0.002 0.065 0.002 0.514 0 0.857-0.343 0.857-0.857 0-0.492-0.314-0.827-0.792-0.855 0.478 0.028 0.792 0.363 0.792 0.855 0 0.514-0.343 0.857-0.857 0.857-0.022 0-0.044-0.001-0.066-0.002zM27.078 12.37c-0.17-0.011-0.403-0.097-0.562-0.256-1.275-1.275-2.944-2.025-4.72-2.193 1.775 0.168 3.444 0.918 4.719 2.193 0.159 0.159 0.393 0.245 0.563 0.256zM14.889 12.37c-0.196-0.014-0.388-0.099-0.545-0.255-0.343-0.343-0.343-0.857 0-1.2 1.8-1.8 4.2-2.743 6.686-2.743 0.161 0 0.32 0.004 0.479 0.011-0.159-0.007-0.318-0.011-0.479-0.011-2.486 0-4.886 0.943-6.686 2.743-0.343 0.343-0.343 0.857 0 1.2 0.157 0.157 0.349 0.242 0.545 0.255z"></path>
</svg>
