<!-- Generated by IcoMoon.io -->
<svg version="1.1" xmlns="http://www.w3.org/2000/svg" width="41" height="32" viewBox="0 0 41 32">
<title>retail</title>
<path d="M30.579 0.822c0.124-0.466 0.535-0.822 1.051-0.822h6.5c0.604 0 1.085 0.481 1.085 1.085s-0.481 1.085-1.085 1.085h-5.643l-5.335 21.119c-0.097 0.439-0.454 0.712-0.825 0.793-0.033 0.015-0.068 0.026-0.103 0.032-0.045 0.007-0.094 0.007-0.119 0.007v0h-1.455c0.356 0.618 0.577 1.332 0.577 2.109 0 2.358-1.92 4.278-4.278 4.278s-4.278-1.92-4.278-4.278c0-0.777 0.22-1.491 0.577-2.109h-3.302c0.356 0.618 0.577 1.332 0.577 2.109 0 2.358-1.92 4.278-4.278 4.278s-4.278-1.92-4.278-4.278c0-0.777 0.22-1.491 0.577-2.109h-1.449c-0.517 0-0.927-0.356-1.051-0.822l-0.001-0.004-4.002-15.849c-0.099-0.34 0.007-0.687 0.188-0.929l0.015-0.019c0.206-0.236 0.492-0.401 0.849-0.401h28.156l1.334-5.272zM29.494 6.415h-28.405c-0.247 0-0.45 0.112-0.607 0.292-0.135 0.18-0.202 0.427-0.135 0.652l4.003 15.855c0.085 0.318 0.349 0.556 0.68 0.582-0.331-0.027-0.595-0.265-0.679-0.582l-4.003-15.856c-0.067-0.225 0-0.472 0.135-0.652 0.157-0.18 0.36-0.292 0.607-0.292h28.405l1.394-5.51c0.090-0.337 0.382-0.585 0.742-0.585h6.499c0.022 0 0.043 0.001 0.064 0.003-0.021-0.002-0.043-0.003-0.065-0.003h-6.5c-0.36 0-0.652 0.247-0.742 0.585l-1.395 5.51zM6.915 24.119c0.070-0.11 0.145-0.217 0.224-0.32h0.001c-0.517 0.675-0.855 1.507-0.855 2.429 0 2.013 1.512 3.68 3.459 3.927-1.947-0.246-3.46-1.914-3.46-3.927 0-0.781 0.242-1.498 0.631-2.109zM17.62 24.119c0.070-0.11 0.145-0.217 0.224-0.32h0.001c-0.517 0.675-0.855 1.507-0.855 2.429 0 2.013 1.512 3.68 3.459 3.927-1.947-0.246-3.46-1.914-3.46-3.927 0-0.781 0.242-1.498 0.631-2.109zM10.242 28.337c1.171 0 2.109-0.957 2.109-2.109 0-1.171-0.957-2.109-2.109-2.109-1.171 0-2.109 0.957-2.109 2.109 0 1.171 0.957 2.109 2.109 2.109zM20.947 28.337c1.171 0 2.109-0.957 2.109-2.109 0-1.173-0.936-2.109-2.109-2.109-1.171 0-2.109 0.957-2.109 2.109 0 1.171 0.957 2.109 2.109 2.109zM25.241 21.95l3.459-13.664h-26.233l3.459 13.664h19.316zM5.677 22.27v0zM10.242 28.657c-0.062 0-0.124-0.002-0.185-0.007 0.061 0.005 0.123 0.007 0.186 0.007 1.349 0 2.429-1.102 2.429-2.429 0-1.204-0.877-2.193-2.008-2.392 1.131 0.2 2.007 1.188 2.007 2.392 0 1.327-1.079 2.429-2.429 2.429zM20.947 28.657c-0.062 0-0.124-0.002-0.185-0.007 0.061 0.005 0.123 0.007 0.186 0.007 1.349 0 2.429-1.102 2.429-2.429 0-1.224-0.889-2.226-2.061-2.402 1.172 0.176 2.060 1.178 2.060 2.402 0 1.327-1.080 2.429-2.429 2.429zM6.037 9.941c-0.604 0-1.085 0.481-1.085 1.085s0.481 1.085 1.085 1.085h19.139c0.604 0 1.085-0.481 1.085-1.085s-0.48-1.085-1.085-1.085h-19.139zM25.177 11.79h-19.139c-0.427 0-0.765-0.337-0.765-0.765 0-0.402 0.298-0.724 0.69-0.761-0.391 0.036-0.69 0.359-0.69 0.761 0 0.427 0.337 0.765 0.765 0.765h19.139c0.025 0 0.050-0.001 0.075-0.003-0.024 0.002-0.049 0.003-0.074 0.003zM23.106 18.104c0.604 0 1.085 0.481 1.085 1.085s-0.481 1.085-1.085 1.085h-15.023c-0.604 0-1.085-0.481-1.085-1.085s0.481-1.085 1.085-1.085h15.023zM23.106 18.424c0.019 0 0.037 0.001 0.055 0.002-0.018-0.001-0.036-0.002-0.054-0.002h-15.023c-0.427 0-0.765 0.337-0.765 0.765 0 0.41 0.311 0.737 0.714 0.763-0.403-0.025-0.714-0.353-0.714-0.763 0-0.427 0.337-0.765 0.765-0.765h15.023zM7.162 14.011c-0.604 0-1.085 0.481-1.085 1.085s0.481 1.085 1.085 1.085h16.845c0.604 0 1.085-0.481 1.085-1.085s-0.481-1.085-1.085-1.085h-16.845zM7.162 14.331c-0.012 0-0.023 0-0.034 0.001 0.011 0 0.022-0.001 0.033-0.001h16.845c0.427 0 0.765 0.337 0.765 0.765 0 0.415-0.319 0.746-0.729 0.764 0.411-0.017 0.73-0.348 0.73-0.764 0-0.427-0.337-0.765-0.765-0.765h-16.845z"></path>
</svg>
