<!-- Generated by IcoMoon.io -->
<svg version="1.1" xmlns="http://www.w3.org/2000/svg" width="32" height="32" viewBox="0 0 32 32">
<title>sm</title>
<path d="M31.2 15.604v0-0.005c0-8.591-7.009-15.599-15.6-15.599s-15.6 7.008-15.6 15.599c0 8.591 7.009 15.599 15.6 15.599 8.594 0 15.531-6.944 15.6-15.595zM16.549 0.63c7.821 0.493 14.051 7.029 14.051 14.97-0.041 5.136-2.597 9.644-6.488 12.344l-0.001 0.001c3.892-2.7 6.448-7.208 6.489-12.344 0-7.941-6.23-14.477-14.051-14.97zM1.26 15.599c0-7.929 6.41-14.339 14.339-14.339 0.134 0 0.267 0.002 0.4 0.006-0.133-0.004-0.266-0.006-0.4-0.006-7.93 0-14.339 6.409-14.339 14.339 0 4.515 2.078 8.537 5.332 11.164v0c-3.254-2.627-5.332-6.649-5.332-11.164zM6.923 27.022v0zM8.038 27.077c1.225-2.981 4.083-4.983 7.266-4.983 3.238 0 6.133 2.008 7.323 5.12-1.904 1.209-4.115 1.951-6.401 2.109-0.208 0.009-0.417 0.014-0.627 0.014-2.796 0-5.394-0.831-7.562-2.261zM23.034 27.16c-1.068-2.884-3.528-4.889-6.416-5.359 2.888 0.471 5.349 2.475 6.416 5.359v0zM29.339 15.599c0 4.466-2.122 8.428-5.414 10.936-1.433-3.497-4.818-5.836-8.621-5.836-3.735 0-6.971 2.184-8.471 5.485-3.039-2.518-4.972-6.322-4.972-10.585 0-7.598 6.141-13.739 13.739-13.739 7.534 0 13.739 6.143 13.739 13.739zM15.304 21.1c0.152 0 0.304 0.004 0.455 0.012-0.151-0.008-0.303-0.012-0.455-0.012-3.607 0-6.73 2.128-8.149 5.344v0c1.419-3.215 4.542-5.344 8.149-5.344zM15.383 28.989l0.085 0.043h0.226c0.216 0 0.36-0.117 0.421-0.169 0.014-0.012 0.028-0.024 0.038-0.033v0l0.005-0.004c0.012-0.011 0.020-0.018 0.028-0.024l0.011-0.009 0.005-0.003 0.132-0.067 1.192-2.92v-0.088c0-0.059 0-0.15-0.012-0.236-0.012-0.085-0.044-0.24-0.168-0.365l-0.007-0.007c-0.072-0.074-0.24-0.245-0.538-0.245l-0.957 0.041 0.673-1.661c0.105-0.23 0.026-0.454-0.040-0.575-0.073-0.133-0.193-0.263-0.341-0.338-0.239-0.122-0.474-0.036-0.597 0.033-0.133 0.075-0.261 0.197-0.334 0.345l-1.112 2.724c-0.051 0.107-0.083 0.228-0.083 0.352 0 0.126 0.035 0.291 0.164 0.421l0.007 0.007c0.072 0.074 0.24 0.245 0.538 0.245l0.957-0.040-0.673 1.661c-0.105 0.23-0.026 0.454 0.040 0.575 0.073 0.133 0.193 0.263 0.341 0.338zM15.239 25.329l1.561-0.066c0.009 0 0.018 0 0.027 0.001-0.008-0.001-0.017-0.001-0.026-0.001l-1.561 0.066zM15.565 28.633c-0.13-0.066-0.26-0.264-0.195-0.396v0c-0.065 0.132 0.065 0.33 0.195 0.396v0zM15.564 22.884l-1.106 2.709c-0.065 0.132-0.065 0.264 0 0.33 0.061 0.061 0.121 0.123 0.234 0.131-0.113-0.008-0.173-0.070-0.234-0.131-0.065-0.066-0.065-0.198 0-0.33l1.106-2.709c0.055-0.112 0.205-0.225 0.329-0.215-0.124-0.010-0.274 0.103-0.329 0.215zM3.921 18.966l0.001 0.004c0.103 0.377 0.469 0.62 0.857 0.569l0.131-0.017 2.603-0.746 0.034-0.017c0.106-0.054 0.239-0.147 0.33-0.296 0.101-0.164 0.134-0.368 0.064-0.582l-0.009-0.027-0.012-0.025c-0.052-0.106-0.143-0.241-0.291-0.334-0.16-0.101-0.361-0.137-0.571-0.071l-1.875 0.49c-0.101-0.436-0.173-0.866-0.201-1.291h1.929c0.19 0 0.379-0.066 0.521-0.21s0.204-0.332 0.204-0.52-0.063-0.377-0.204-0.52c-0.142-0.144-0.33-0.21-0.521-0.21h-1.935c0.016-0.434 0.061-0.864 0.148-1.29l1.869 0.488c0.155 0.049 0.35 0.068 0.538-0.027 0.194-0.098 0.294-0.274 0.345-0.43s0.074-0.356-0.021-0.549c-0.096-0.194-0.268-0.298-0.426-0.351l-1.901-0.498c0.139-0.408 0.317-0.801 0.511-1.202l1.68 0.991 0.039 0.013c0.316 0.107 0.76 0.036 0.943-0.334l0.012-0.025 0.009-0.027c0.101-0.308 0.040-0.746-0.316-0.937l-1.66-0.979c0.241-0.389 0.486-0.744 0.765-1.071l1.394 1.362c0.287 0.288 0.736 0.287 1.022-0.003 0.283-0.288 0.283-0.736 0-1.024l-1.374-1.342 0.068-0.055c0.32-0.259 0.62-0.503 0.949-0.73l0.96 1.681 0.014 0.021c0.12 0.182 0.29 0.299 0.482 0.338 0.183 0.037 0.356-0.001 0.488-0.068l0.022-0.011 0.021-0.014c0.181-0.123 0.293-0.295 0.331-0.485 0.036-0.181 0-0.353-0.065-0.486l-0.974-1.704c0.393-0.196 0.778-0.376 1.177-0.517l0.492 1.943 0.019 0.038c0.052 0.106 0.143 0.241 0.291 0.334 0.164 0.104 0.371 0.139 0.587 0.066l0.027-0.009 0.026-0.013c0.106-0.054 0.239-0.147 0.33-0.296 0.098-0.16 0.132-0.358 0.069-0.567l-0.478-1.887c0.429-0.076 0.844-0.14 1.254-0.167v1.965c0 0.188 0.063 0.377 0.204 0.52s0.331 0.21 0.521 0.21 0.379-0.066 0.521-0.21c0.141-0.143 0.204-0.332 0.204-0.52v-1.971c0.424 0.017 0.844 0.062 1.26 0.15l-0.484 1.91c-0.048 0.154-0.066 0.347 0.026 0.534 0.096 0.194 0.268 0.298 0.426 0.351s0.359 0.077 0.553-0.022c0.194-0.098 0.295-0.274 0.346-0.43l0.488-1.929c0.399 0.141 0.784 0.321 1.177 0.517l-0.982 1.718-0.013 0.039c-0.102 0.312-0.038 0.757 0.329 0.944l0.026 0.013 0.027 0.009c0.312 0.106 0.749 0.038 0.936-0.321l0.97-1.697c0.364 0.22 0.708 0.484 1.031 0.782l-1.403 1.37c-0.283 0.288-0.283 0.736 0 1.024 0.287 0.291 0.739 0.291 1.026 0l1.306-1.327 0.052 0.066c0.258 0.329 0.501 0.638 0.727 0.976l-1.684 0.994c-0.181 0.123-0.293 0.295-0.331 0.485-0.036 0.181 0.001 0.352 0.066 0.485l0.011 0.022 0.013 0.021c0.12 0.182 0.29 0.299 0.483 0.338 0.183 0.037 0.356 0 0.489-0.068l1.666-0.982c0.194 0.401 0.372 0.795 0.511 1.202l-1.916 0.5-0.038 0.020c-0.106 0.054-0.239 0.147-0.33 0.296-0.101 0.164-0.134 0.368-0.064 0.582l0.009 0.027 0.012 0.025c0.052 0.106 0.143 0.241 0.291 0.334 0.16 0.101 0.36 0.137 0.57 0.071l2.111-0.55c0.073 0.417 0.136 0.858 0.162 1.285h-1.93c-0.19 0-0.379 0.066-0.521 0.21s-0.204 0.332-0.204 0.52 0.063 0.377 0.204 0.52c0.142 0.144 0.331 0.21 0.521 0.21h1.904c-0.043 0.44-0.093 0.867-0.181 1.29l-1.87-0.488c-0.155-0.049-0.35-0.068-0.538 0.027-0.194 0.098-0.294 0.274-0.345 0.43s-0.074 0.356 0.021 0.549c0.096 0.194 0.268 0.298 0.426 0.351l2.61 0.748h0.128c0.079 0 0.291 0 0.474-0.187 0.014-0.007 0.027-0.016 0.041-0.025 0.079-0.054 0.127-0.122 0.154-0.177 0.026-0.053 0.037-0.102 0.043-0.134 0.264-1.015 0.397-2.032 0.397-3.050 0-3.284-1.348-6.222-3.429-8.404l-0.135-0.137c-0.669-0.68-1.416-1.302-2.305-1.788l-0.13-0.066c-1.752-1.024-3.769-1.569-5.852-1.569-2.149 0-4.102 0.545-5.852 1.569l-0.135 0.069-0.015 0.009c-0.851 0.532-1.69 1.123-2.372 1.812l-0.098 0.085-0.011 0.011c-2.154 2.187-3.433 5.129-3.433 8.408 0 1.027 0.135 2.052 0.403 3.075zM7.171 17.807c0.041-0.014 0.080-0.019 0.115-0.017-0.035-0.002-0.074 0.003-0.115 0.017v0zM4.308 18.864c-0.26-0.991-0.39-1.982-0.39-2.973 0-3.172 1.236-6.013 3.318-8.127l0.098-0.085c0.651-0.661 1.464-1.236 2.309-1.765l0.13-0.066c1.692-0.991 3.578-1.52 5.66-1.52 0.132 0 0.263 0.002 0.394 0.007-0.131-0.004-0.262-0.007-0.394-0.007-2.082 0-3.969 0.529-5.66 1.52l-0.13 0.066c-0.846 0.529-1.659 1.104-2.309 1.765l-0.098 0.085c-2.082 2.114-3.318 4.956-3.318 8.127 0 0.991 0.13 1.982 0.39 2.973 0.044 0.16 0.184 0.27 0.344 0.28-0.16-0.010-0.3-0.121-0.344-0.28zM23.567 18.336c-0.195-0.066-0.26-0.198-0.195-0.396 0.051-0.156 0.143-0.23 0.275-0.222-0.132-0.008-0.224 0.066-0.276 0.222-0.065 0.198 0 0.33 0.195 0.396v0zM26.039 18.336c0.195-0.727 0.26-1.454 0.325-2.181l-0.001 0.001c-0.012 0.133-0.024 0.266-0.036 0.399-0.044 0.464-0.098 0.928-0.196 1.391-0.021 0.099-0.044 0.199-0.069 0.298-0.008 0.030-0.016 0.061-0.024 0.091v0zM23.697 15.825c0-0.198 0.13-0.33 0.325-0.33h2.342c0-0.727-0.13-1.52-0.26-2.181v0c0.025 0.127 0.050 0.259 0.074 0.394 0.079 0.441 0.147 0.92 0.174 1.386 0.008 0.135 0.012 0.268 0.012 0.4h-2.342c-0.195 0-0.325 0.132-0.325 0.33 0 0.191 0.12 0.32 0.303 0.33-0.183-0.010-0.303-0.139-0.303-0.33zM23.176 13.776c-0.065-0.198 0.065-0.33 0.195-0.396l2.277-0.595c-0.195-0.727-0.52-1.388-0.846-2.048l-0.001 0.001 0.068 0.137c0.037 0.074 0.073 0.148 0.109 0.222 0.206 0.424 0.401 0.854 0.553 1.305 0.042 0.126 0.081 0.253 0.116 0.383l-2.277 0.595c-0.13 0.066-0.26 0.198-0.195 0.396 0.051 0.104 0.143 0.209 0.276 0.215-0.132-0.007-0.224-0.111-0.275-0.215zM22.331 11.794c-0.065-0.132-0.065-0.33 0.13-0.463l2.017-1.189c-0.299-0.505-0.635-0.933-0.981-1.373-0.106-0.135-0.213-0.271-0.321-0.411v0c0.083 0.108 0.165 0.214 0.248 0.318l0.073 0.093c0.266 0.338 0.526 0.669 0.768 1.034 0.073 0.11 0.144 0.222 0.213 0.339l-2.017 1.189c-0.195 0.132-0.195 0.33-0.13 0.463 0.076 0.116 0.175 0.164 0.27 0.171-0.095-0.007-0.193-0.055-0.269-0.171zM21.094 10.010c0.060 0.061 0.134 0.094 0.209 0.098-0.075-0.005-0.149-0.038-0.209-0.099-0.13-0.132-0.13-0.33 0-0.463l1.692-1.652c-0.094-0.095-0.19-0.188-0.287-0.279-0.446-0.412-0.936-0.772-1.469-1.043v0c0.651 0.33 1.236 0.793 1.757 1.322l-1.692 1.652c-0.13 0.132-0.13 0.33 0 0.463zM19.403 8.755c-0.13-0.066-0.195-0.264-0.13-0.463l1.171-2.048c-0.651-0.33-1.301-0.661-2.017-0.859v0c0.129 0.036 0.256 0.076 0.382 0.12 0.442 0.154 0.862 0.351 1.277 0.559 0.119 0.060 0.238 0.12 0.357 0.181l-1.171 2.048c-0.065 0.198 0 0.396 0.13 0.463 0.041 0.014 0.082 0.022 0.122 0.025-0.040-0.003-0.081-0.011-0.122-0.025zM17.451 7.896c-0.195-0.066-0.26-0.198-0.195-0.396l0.586-2.313c-0.246-0.068-0.493-0.121-0.739-0.16 0.117 0.019 0.234 0.040 0.351 0.065 0.035 0.008 0.071 0.015 0.106 0.023 0.094 0.022 0.188 0.045 0.283 0.072l-0.586 2.313c-0.065 0.198 0 0.33 0.195 0.396 0.041 0.014 0.080 0.022 0.115 0.024-0.035-0.002-0.074-0.010-0.115-0.024zM15.044 7.301v0c0 0.191 0.12 0.32 0.303 0.33-0.182-0.010-0.303-0.139-0.303-0.33zM12.897 7.697v0c0.051 0.104 0.143 0.209 0.276 0.215-0.132-0.007-0.224-0.111-0.275-0.215zM10.295 6.243v0.001l0.268-0.137c-0.090 0.045-0.179 0.090-0.268 0.136zM10.88 8.622v0c0.076 0.116 0.175 0.164 0.27 0.171-0.095-0.007-0.193-0.055-0.269-0.171zM9.188 10.010v0c0.060 0.061 0.134 0.094 0.209 0.099-0.075-0.005-0.149-0.038-0.208-0.098zM7.886 11.926v0c0.041 0.014 0.082 0.022 0.122 0.025-0.040-0.003-0.081-0.011-0.122-0.025zM6.933 15.561l-0.023-0.001c0.008 0 0.015 0 0.023 0.001zM4.829 13.38l2.277 0.595c0.041 0.014 0.079 0.022 0.115 0.024-0.035-0.002-0.074-0.010-0.115-0.024l-2.277-0.595zM18.042 9.161c-0.103 0.058-0.199 0.152-0.252 0.259l-1.695 3.951c-0.236-0.053-0.513-0.098-0.793-0.098-1.74 0-3.193 1.48-3.193 3.24s1.453 3.24 3.193 3.24c1.802 0 3.26-1.478 3.193-3.309-0.001-1.129-0.56-2.136-1.445-2.719l1.687-3.935c0.070-0.149 0.023-0.304-0.031-0.402-0.057-0.104-0.149-0.202-0.256-0.256-0.152-0.077-0.31-0.026-0.408 0.029zM13.16 16.513c0-1.284 0.958-2.245 2.142-2.245 1.253 0 2.207 0.965 2.207 2.245 0 1.277-1.016 2.245-2.207 2.245-1.181 0-2.142-1.024-2.142-2.245zM16.935 16.463h-0.001c-0.072 0.879-0.729 1.571-1.566 1.571-0.894 0-1.566-0.687-1.566-1.588 0-0.828 0.666-1.588 1.566-1.588 0.823 0 1.566 0.681 1.566 1.588v0.016zM15.369 15.92c-0.277 0-0.516 0.238-0.516 0.527s0.239 0.527 0.516 0.527c0.277 0 0.516-0.238 0.516-0.527 0-0.104-0.054-0.239-0.158-0.351-0.102-0.111-0.231-0.175-0.358-0.175zM15.369 17.834c0.716 0 1.301-0.595 1.366-1.388 0-0.764-0.603-1.343-1.287-1.385 0.684 0.042 1.287 0.622 1.287 1.385-0.065 0.793-0.651 1.388-1.366 1.388-0.032 0-0.063-0.001-0.095-0.003 0.031 0.002 0.063 0.003 0.095 0.003zM14.653 16.447c0 0.382 0.302 0.702 0.672 0.725-0.371-0.023-0.673-0.344-0.673-0.726 0-0.396 0.325-0.727 0.716-0.727 0.012 0 0.024 0 0.036 0.001-0.012-0.001-0.024-0.001-0.036-0.001-0.39 0-0.716 0.33-0.716 0.727z"></path>
</svg>
