<!-- Generated by IcoMoon.io -->
<svg version="1.1" xmlns="http://www.w3.org/2000/svg" width="32" height="32" viewBox="0 0 32 32">
<title>sport</title>
<path d="M15.733 0c-8.655 0-15.733 7.078-15.733 15.733s7.078 15.733 15.733 15.733c8.655 0 15.733-7.078 15.733-15.733s-7.078-15.733-15.733-15.733zM15.733 28.8c-2.379 0-4.624-0.66-6.559-1.781 2.726-1.509 4.636-3.475 5.356-5.724l0.271 0.011c0.301 0.013 0.622 0.027 0.933 0.027 0.876 0 1.75-0.029 2.615-0.066-0.301 2.305-0.77 4.194-1.299 5.531-0.301 0.76-0.606 1.303-0.883 1.641-0.271 0.331-0.421 0.358-0.433 0.36-0.001 0-0.001 0 0 0zM26.047 23.789c-1.687 2.139-4.051 3.765-6.772 4.515 0.328-0.73 0.609-1.555 0.85-2.433 0.398-1.451 0.7-3.1 0.914-4.818 0.84-0.093 1.653-0.223 2.432-0.36 0.519 1.221 1.389 2.261 2.576 3.095zM27.431 21.477c-0.601-0.431-1.030-0.899-1.321-1.41 0.778-0.217 1.511-0.474 2.164-0.767-0.218 0.754-0.501 1.481-0.842 2.176zM26.596 14.862c0.459-0.883 1.053-1.755 1.719-2.568 0.305 1.102 0.484 2.269 0.485 3.483-0.004 0.014-0.025 0.073-0.121 0.182-0.135 0.153-0.371 0.345-0.735 0.556-0.54 0.314-1.293 0.634-2.243 0.926 0.122-0.814 0.432-1.688 0.895-2.579zM20.552 7.587c-0.32-1.647-0.755-3.179-1.321-4.425 3.466 0.948 6.298 3.271 7.96 6.352-2.62 2.835-4.211 5.855-4.232 8.603-0.54 0.095-1.119 0.177-1.722 0.245 0.044-0.884 0.044-1.76 0.044-2.613v-0.017c0-2.789-0.243-5.654-0.728-8.146zM6.808 25.198c-1.735-1.563-2.995-3.613-3.639-5.931 0.918 0.411 1.989 0.755 3.142 1.036 1.636 0.399 3.49 0.683 5.412 0.844-0.747 1.43-2.41 2.91-4.915 4.050zM11.038 12.59c-1.873-1.629-4.195-2.952-6.356-3.829 2.283-3.637 6.404-6.094 11.051-6.094 0.003 0 0.248 0.032 0.656 0.656 0.373 0.571 0.757 1.457 1.103 2.641 0.688 2.358 1.175 5.747 1.175 9.769 0 1.006-0.033 1.946-0.074 2.882-0.886 0.051-1.841 0.051-2.859 0.051-0.334 0-0.652 0-0.952-0.009-0.282-2.331-1.833-4.408-3.743-6.068zM2.667 15.733c0-1.594 0.296-3.115 0.826-4.534 2.123 0.809 4.204 2.021 5.8 3.422 1.459 1.281 2.423 2.639 2.748 3.921-2.847-0.244-5.197-0.726-6.864-1.305-0.931-0.323-1.609-0.663-2.037-0.98-0.213-0.158-0.34-0.292-0.409-0.392-0.033-0.048-0.049-0.083-0.056-0.104-0.004-0.010-0.005-0.017-0.006-0.022s-0.001-0.006-0.001-0.006z"></path>
</svg>
