<!-- Generated by IcoMoon.io -->
<svg version="1.1" xmlns="http://www.w3.org/2000/svg" width="28" height="32" viewBox="0 0 28 32">
<title>telecom</title>
<path d="M7.139 0l9.864 9.551 2.687-2.602 0.159 0.164c-0.021-0.105-0.033-0.213-0.033-0.324 0-0.917 0.768-1.66 1.714-1.66s1.714 0.743 1.714 1.66-0.768 1.66-1.714 1.66c-0.153 0-0.301-0.019-0.441-0.056l0.222 0.229-2.633 2.55 8.492 8.223-0.964 0.934c-3.734 3.616-8.978 4.797-13.698 3.544 0.258 0.090 0.519 0.177 0.784 0.264l0.082 0.019c0.040 0.009 0.094 0.021 0.147 0.035 0.105 0.027 0.295 0.078 0.496 0.189 0.5 0.276 0.72 0.713 0.842 1.030l0.012 0.030 0.010 0.031c0.032 0.098 0.174 0.348 0.501 0.804 0.087 0.122 0.19 0.261 0.298 0.409v0c0.222 0.301 0.469 0.637 0.661 0.927 0.152 0.228 0.308 0.483 0.431 0.742 0.11 0.233 0.258 0.601 0.257 1.021-0.001 0.521-0.238 1.085-0.803 1.418-0.425 0.251-0.893 0.279-1.232 0.266-4.556 0.034-7.977 0.051-10.262 0.051-1.144 0-2.009-0.004-2.591-0.013-0.289-0.004-0.519-0.010-0.681-0.017-0.077-0.003-0.162-0.008-0.237-0.016-0.030-0.003-0.104-0.011-0.188-0.030-0.032-0.007-0.142-0.032-0.271-0.091-0.060-0.028-0.202-0.097-0.347-0.232s-0.414-0.456-0.414-0.952v-0.222l0.074-0.21c0.365-1.034 0.756-2.098 1.135-3.125v-0.001c0.163-0.442 0.323-0.877 0.478-1.3 0.248-0.701 0.517-1.39 0.779-2.059v0l0.065-0.166c0.286-0.731 0.562-1.443 0.811-2.175l0.004-0.012c0.023-0.067 0.060-0.176 0.101-0.277l0.003-0.008c0.025-0.062 0.137-0.342 0.369-0.569l0.88-0.861 0.561 0.515c-4.575-5.416-4.25-13.355 0.973-18.413l0.904-0.876zM7.187 3.666c-3.638 4.382-3.353 10.72 0.856 14.796 4.211 4.078 10.782 4.372 15.333 0.88l-16.188-15.676zM5.264 22.819c-0.104 0.272-0.208 0.539-0.312 0.803l-0.062 0.159c-0.266 0.679-0.521 1.33-0.754 1.99l-0.005 0.014c-0.161 0.44-0.325 0.886-0.49 1.335v0c-0.169 0.46-0.34 0.922-0.509 1.386 0.447 0.002 0.979 0.004 1.596 0.004 2.069 0 5.079-0.014 9.032-0.042l-0.118-0.161c-0.118-0.161-0.244-0.331-0.378-0.518-0.228-0.319-0.517-0.735-0.716-1.159l-0.015-0.005c-2.054-0.67-4.184-1.48-6.065-2.818l-0.013-0.009-0.012-0.009c-0.411-0.307-0.803-0.637-1.18-0.97zM12.894 26.716l-0.006-0.002c0.005 0.001 0.006 0.002 0.006 0.002zM14.446 29.531l-0.002-0.007c0.002 0.005 0.002 0.007 0.002 0.007zM15.143 28.461c0.009-0.001 0.014-0.001 0.014-0.001s-0.004 0.001-0.014 0.001z"></path>
</svg>
