<!-- Generated by IcoMoon.io -->
<svg version="1.1" xmlns="http://www.w3.org/2000/svg" width="29" height="32" viewBox="0 0 29 32">
<title>user</title>
<path d="M10.222 8.593c0-2.455 1.99-4.444 4.444-4.444s4.444 1.99 4.444 4.444-1.99 4.444-4.444 4.444c-2.455 0-4.444-1.99-4.444-4.444zM14.667 1.185c-4.091 0-7.407 3.316-7.407 7.407s3.316 7.407 7.407 7.407c4.091 0 7.407-3.316 7.407-7.407s-3.316-7.407-7.407-7.407zM8.741 18.963c-1.965 0-3.849 0.78-5.238 2.17s-2.17 3.273-2.17 5.238v2.963c0 0.818 0.663 1.482 1.481 1.482s1.481-0.663 1.481-1.482v-2.963c0-1.179 0.468-2.309 1.302-3.143s1.964-1.302 3.143-1.302h11.852c1.179 0 2.309 0.468 3.143 1.302s1.302 1.964 1.302 3.143v2.963c0 0.818 0.663 1.482 1.481 1.482s1.481-0.663 1.481-1.482v-2.963c0-1.965-0.78-3.849-2.17-5.238s-3.273-2.17-5.238-2.17h-11.852z"></path>
</svg>
