<!-- Generated by IcoMoon.io -->
<svg version="1.1" xmlns="http://www.w3.org/2000/svg" width="16" height="32" viewBox="0 0 16 32">
<title>wearables</title>
<path d="M5.345 20.72h7.84v-10.24h-10.24v10.24h2.4zM5.345 22.8v6.32h5.056v-6.32h-5.056zM5.345 29.445v0zM0.865 10c0-0.884 0.716-1.6 1.6-1.6h0.8v-6.69c0-0.962 0.694-1.71 1.487-1.71h6.243c0.842 0 1.487 0.748 1.487 1.71v6.69h1.184c0.884 0 1.6 0.716 1.6 1.6v11.2c0 0.884-0.716 1.6-1.6 1.6h-1.184v6.69c0 0.962-0.694 1.71-1.487 1.71h-6.243c-0.842 0-1.487-0.801-1.487-1.763v-6.637h-0.8c-0.884 0-1.6-0.716-1.6-1.6v-11.2zM5.345 8.4h5.056v-6.32h-5.056v6.32zM8.222 14.036c0.265-0.531 1.023-0.531 1.288 0l0.502 1.004h2.054c0.309 0 0.56 0.251 0.56 0.56s-0.251 0.56-0.56 0.56h-2.4c-0.212 0-0.406-0.12-0.501-0.31l-0.299-0.598-0.956 1.912c-0.265 0.531-1.023 0.531-1.288 0l-0.502-1.004h-2.054c-0.309 0-0.56-0.251-0.56-0.56s0.251-0.56 0.56-0.56h2.746l0.454 0.908 0.956-1.912z"></path>
</svg>
